<svg width="195" height="43" viewBox="0 0 195 43" fill="none" xmlns="http://www.w3.org/2000/svg">
<path d="M0 2C0 0.895431 0.895431 0 2 0H193C194.105 0 195 0.895431 195 2V41C195 42.1046 194.105 43 193 43H2C0.895431 43 0 42.1046 0 41V2Z" fill="#E8ECF4"/>
<path d="M40.596 21.216C40.7693 21.216 40.9123 21.2767 41.025 21.398C41.1463 21.5193 41.207 21.6667 41.207 21.84V24.765C41.207 24.999 41.103 25.181 40.895 25.311C40.4963 25.571 40.0586 25.7747 39.582 25.922C39.1053 26.0607 38.6156 26.13 38.113 26.13C37.2463 26.13 36.449 25.922 35.721 25.506C35.0016 25.09 34.434 24.5267 34.018 23.816C33.602 23.0967 33.394 22.308 33.394 21.45C33.394 20.592 33.602 19.8077 34.018 19.097C34.434 18.3777 35.0016 17.81 35.721 17.394C36.449 16.978 37.2463 16.77 38.113 16.77C38.5463 16.77 38.9623 16.8177 39.361 16.913C39.7683 17.0083 40.1323 17.1513 40.453 17.342C40.557 17.4027 40.635 17.4763 40.687 17.563C40.739 17.6497 40.765 17.745 40.765 17.849C40.765 18.0223 40.7043 18.174 40.583 18.304C40.4703 18.4253 40.3316 18.486 40.167 18.486C40.037 18.486 39.9243 18.4557 39.829 18.395C39.2656 18.135 38.6936 18.005 38.113 18.005C37.489 18.005 36.917 18.1567 36.397 18.46C35.8856 18.7633 35.4783 19.1793 35.175 19.708C34.8803 20.2367 34.733 20.8173 34.733 21.45C34.733 22.0827 34.8803 22.6633 35.175 23.192C35.4783 23.712 35.8856 24.128 36.397 24.44C36.917 24.7433 37.489 24.895 38.113 24.895C38.4076 24.895 38.7153 24.8603 39.036 24.791C39.3653 24.7217 39.647 24.6307 39.881 24.518V22.451H38.308C38.1346 22.451 37.9873 22.3947 37.866 22.282C37.7446 22.1607 37.684 22.0133 37.684 21.84C37.684 21.658 37.7446 21.5107 37.866 21.398C37.9873 21.2767 38.1346 21.216 38.308 21.216H40.596ZM49.245 22.594C49.245 23.27 49.0934 23.8767 48.79 24.414C48.4867 24.9513 48.0707 25.3717 47.542 25.675C47.022 25.9783 46.4457 26.13 45.813 26.13C45.1804 26.13 44.5997 25.9783 44.071 25.675C43.551 25.3717 43.1394 24.9513 42.836 24.414C42.5327 23.8767 42.381 23.27 42.381 22.594C42.381 21.918 42.5327 21.307 42.836 20.761C43.1394 20.215 43.551 19.7903 44.071 19.487C44.5997 19.1837 45.1804 19.032 45.813 19.032C46.4457 19.032 47.022 19.1837 47.542 19.487C48.0707 19.7903 48.4867 20.215 48.79 20.761C49.0934 21.307 49.245 21.918 49.245 22.594ZM48.01 22.594C48.01 22.126 47.9104 21.71 47.711 21.346C47.5204 20.9733 47.256 20.6873 46.918 20.488C46.5887 20.28 46.2204 20.176 45.813 20.176C45.4057 20.176 45.033 20.28 44.695 20.488C44.3657 20.6873 44.1014 20.9733 43.902 21.346C43.7114 21.71 43.616 22.126 43.616 22.594C43.616 23.0533 43.7114 23.465 43.902 23.829C44.1014 24.193 44.3657 24.479 44.695 24.687C45.033 24.8863 45.4057 24.986 45.813 24.986C46.2204 24.986 46.5887 24.8863 46.918 24.687C47.256 24.479 47.5204 24.193 47.711 23.829C47.9104 23.465 48.01 23.0533 48.01 22.594ZM56.1323 20.397V24.271C56.1323 24.7043 56.3273 24.921 56.7173 24.921C56.7779 24.921 56.8603 24.908 56.9643 24.882C57.0683 24.8473 57.1506 24.83 57.2113 24.83C57.3239 24.83 57.4193 24.8777 57.4973 24.973C57.5753 25.0683 57.6143 25.1897 57.6143 25.337C57.6143 25.519 57.5103 25.675 57.3023 25.805C57.0943 25.935 56.8603 26 56.6003 26C56.3143 26 56.0499 25.9697 55.8073 25.909C55.5733 25.8483 55.3609 25.6967 55.1703 25.454C54.9883 25.2027 54.8973 24.8257 54.8973 24.323V20.397H54.1433C53.9786 20.397 53.8399 20.345 53.7273 20.241C53.6233 20.1283 53.5713 19.9897 53.5713 19.825C53.5713 19.6603 53.6233 19.526 53.7273 19.422C53.8399 19.318 53.9786 19.266 54.1433 19.266H54.8973V18.174C54.8973 18.0007 54.9536 17.8533 55.0663 17.732C55.1876 17.6107 55.3393 17.55 55.5213 17.55C55.6946 17.55 55.8376 17.6107 55.9503 17.732C56.0716 17.8533 56.1323 18.0007 56.1323 18.174V19.266H57.2113C57.3759 19.266 57.5103 19.3223 57.6143 19.435C57.7269 19.539 57.7833 19.6733 57.7833 19.838C57.7833 20.0027 57.7269 20.137 57.6143 20.241C57.5103 20.345 57.3759 20.397 57.2113 20.397H56.1323ZM65.6093 22.594C65.6093 23.27 65.4576 23.8767 65.1543 24.414C64.8509 24.9513 64.4349 25.3717 63.9063 25.675C63.3863 25.9783 62.8099 26.13 62.1773 26.13C61.5446 26.13 60.9639 25.9783 60.4353 25.675C59.9153 25.3717 59.5036 24.9513 59.2003 24.414C58.8969 23.8767 58.7453 23.27 58.7453 22.594C58.7453 21.918 58.8969 21.307 59.2003 20.761C59.5036 20.215 59.9153 19.7903 60.4353 19.487C60.9639 19.1837 61.5446 19.032 62.1773 19.032C62.8099 19.032 63.3863 19.1837 63.9063 19.487C64.4349 19.7903 64.8509 20.215 65.1543 20.761C65.4576 21.307 65.6093 21.918 65.6093 22.594ZM64.3743 22.594C64.3743 22.126 64.2746 21.71 64.0753 21.346C63.8846 20.9733 63.6203 20.6873 63.2823 20.488C62.9529 20.28 62.5846 20.176 62.1773 20.176C61.7699 20.176 61.3973 20.28 61.0593 20.488C60.7299 20.6873 60.4656 20.9733 60.2663 21.346C60.0756 21.71 59.9803 22.126 59.9803 22.594C59.9803 23.0533 60.0756 23.465 60.2663 23.829C60.4656 24.193 60.7299 24.479 61.0593 24.687C61.3973 24.8863 61.7699 24.986 62.1773 24.986C62.5846 24.986 62.9529 24.8863 63.2823 24.687C63.6203 24.479 63.8846 24.193 64.0753 23.829C64.2746 23.465 64.3743 23.0533 64.3743 22.594ZM76.1755 16.38C76.3575 16.38 76.5049 16.4407 76.6175 16.562C76.7389 16.6747 76.7995 16.822 76.7995 17.004V25.376C76.7995 25.5493 76.7389 25.6967 76.6175 25.818C76.5049 25.9393 76.3575 26 76.1755 26C75.9935 26 75.8462 25.9437 75.7335 25.831C75.6209 25.7097 75.5645 25.558 75.5645 25.376V25.012C75.3479 25.324 75.0402 25.5883 74.6415 25.805C74.2515 26.0217 73.8312 26.13 73.3805 26.13C72.7912 26.13 72.2582 25.9783 71.7815 25.675C71.3049 25.3717 70.9279 24.9513 70.6505 24.414C70.3732 23.868 70.2345 23.257 70.2345 22.581C70.2345 21.905 70.3689 21.2983 70.6375 20.761C70.9149 20.215 71.2919 19.7903 71.7685 19.487C72.2452 19.1837 72.7695 19.032 73.3415 19.032C73.8009 19.032 74.2255 19.1273 74.6155 19.318C75.0055 19.5087 75.3219 19.7557 75.5645 20.059V17.004C75.5645 16.822 75.6209 16.6747 75.7335 16.562C75.8462 16.4407 75.9935 16.38 76.1755 16.38ZM73.5235 24.986C73.9309 24.986 74.2905 24.882 74.6025 24.674C74.9232 24.466 75.1702 24.18 75.3435 23.816C75.5255 23.452 75.6165 23.0403 75.6165 22.581C75.6165 22.1303 75.5255 21.723 75.3435 21.359C75.1702 20.9863 74.9232 20.696 74.6025 20.488C74.2905 20.28 73.9309 20.176 73.5235 20.176C73.1162 20.176 72.7522 20.28 72.4315 20.488C72.1195 20.696 71.8725 20.9863 71.6905 21.359C71.5172 21.723 71.4305 22.1303 71.4305 22.581C71.4305 23.0403 71.5172 23.452 71.6905 23.816C71.8725 24.18 72.1195 24.466 72.4315 24.674C72.7522 24.882 73.1162 24.986 73.5235 24.986ZM85.0839 22.594C85.0839 23.27 84.9322 23.8767 84.6289 24.414C84.3256 24.9513 83.9096 25.3717 83.3809 25.675C82.8609 25.9783 82.2846 26.13 81.6519 26.13C81.0192 26.13 80.4386 25.9783 79.9099 25.675C79.3899 25.3717 78.9782 24.9513 78.6749 24.414C78.3716 23.8767 78.2199 23.27 78.2199 22.594C78.2199 21.918 78.3716 21.307 78.6749 20.761C78.9782 20.215 79.3899 19.7903 79.9099 19.487C80.4386 19.1837 81.0192 19.032 81.6519 19.032C82.2846 19.032 82.8609 19.1837 83.3809 19.487C83.9096 19.7903 84.3256 20.215 84.6289 20.761C84.9322 21.307 85.0839 21.918 85.0839 22.594ZM83.8489 22.594C83.8489 22.126 83.7492 21.71 83.5499 21.346C83.3592 20.9733 83.0949 20.6873 82.7569 20.488C82.4276 20.28 82.0592 20.176 81.6519 20.176C81.2446 20.176 80.8719 20.28 80.5339 20.488C80.2046 20.6873 79.9402 20.9733 79.7409 21.346C79.5502 21.71 79.4549 22.126 79.4549 22.594C79.4549 23.0533 79.5502 23.465 79.7409 23.829C79.9402 24.193 80.2046 24.479 80.5339 24.687C80.8719 24.8863 81.2446 24.986 81.6519 24.986C82.0592 24.986 82.4276 24.8863 82.7569 24.687C83.0949 24.479 83.3592 24.193 83.5499 23.829C83.7492 23.465 83.8489 23.0533 83.8489 22.594ZM89.4837 19.032C90.1683 19.032 90.736 19.1403 91.1867 19.357C91.646 19.5737 91.8757 19.851 91.8757 20.189C91.8757 20.3363 91.828 20.4707 91.7327 20.592C91.6373 20.7047 91.516 20.761 91.3687 20.761C91.256 20.761 91.165 20.7437 91.0957 20.709C91.035 20.6743 90.9483 20.618 90.8357 20.54C90.7837 20.488 90.7013 20.4273 90.5887 20.358C90.4847 20.306 90.3373 20.2627 90.1467 20.228C89.956 20.1933 89.7827 20.176 89.6267 20.176C89.176 20.176 88.7773 20.28 88.4307 20.488C88.084 20.696 87.8153 20.9863 87.6247 21.359C87.434 21.723 87.3387 22.1303 87.3387 22.581C87.3387 23.0403 87.4297 23.452 87.6117 23.816C87.8023 24.18 88.0667 24.466 88.4047 24.674C88.7427 24.882 89.1283 24.986 89.5617 24.986C90.0123 24.986 90.3763 24.9167 90.6537 24.778C90.7143 24.7433 90.7967 24.687 90.9007 24.609C90.9873 24.5397 91.061 24.4877 91.1217 24.453C91.191 24.4183 91.2733 24.401 91.3687 24.401C91.542 24.401 91.6763 24.4573 91.7717 24.57C91.8757 24.674 91.9277 24.8127 91.9277 24.986C91.9277 25.168 91.8107 25.35 91.5767 25.532C91.3513 25.7053 91.0437 25.8483 90.6537 25.961C90.2723 26.0737 89.8607 26.13 89.4187 26.13C88.76 26.13 88.1793 25.9783 87.6767 25.675C87.174 25.363 86.784 24.9383 86.5067 24.401C86.238 23.855 86.1037 23.2483 86.1037 22.581C86.1037 21.9137 86.2467 21.3113 86.5327 20.774C86.8187 20.228 87.2173 19.8033 87.7287 19.5C88.24 19.188 88.825 19.032 89.4837 19.032ZM98.2674 19.188C98.4494 19.188 98.5967 19.2487 98.7094 19.37C98.8307 19.4913 98.8914 19.6387 98.8914 19.812V23.27C98.8914 24.1713 98.6401 24.8733 98.1374 25.376C97.6434 25.87 96.9414 26.117 96.0314 26.117C95.1301 26.117 94.4324 25.87 93.9384 25.376C93.4444 24.8733 93.1974 24.1713 93.1974 23.27V19.812C93.1974 19.6387 93.2537 19.4913 93.3664 19.37C93.4877 19.2487 93.6351 19.188 93.8084 19.188C93.9904 19.188 94.1377 19.2487 94.2504 19.37C94.3717 19.4913 94.4324 19.6387 94.4324 19.812V23.27C94.4324 24.4053 94.9654 24.973 96.0314 24.973C96.5601 24.973 96.9631 24.83 97.2404 24.544C97.5177 24.258 97.6564 23.8333 97.6564 23.27V19.812C97.6564 19.6387 97.7127 19.4913 97.8254 19.37C97.9467 19.2487 98.0941 19.188 98.2674 19.188ZM108.551 19.071C110.068 19.071 110.826 20.0157 110.826 21.905V25.376C110.826 25.558 110.77 25.7097 110.657 25.831C110.545 25.9437 110.397 26 110.215 26C110.033 26 109.882 25.9393 109.76 25.818C109.648 25.6967 109.591 25.5493 109.591 25.376V21.918C109.591 20.7827 109.115 20.215 108.161 20.215C107.823 20.215 107.516 20.293 107.238 20.449C106.97 20.5963 106.757 20.8 106.601 21.06C106.454 21.32 106.38 21.606 106.38 21.918V25.376C106.38 25.5493 106.32 25.6967 106.198 25.818C106.086 25.9393 105.938 26 105.756 26C105.574 26 105.427 25.9437 105.314 25.831C105.202 25.7097 105.145 25.558 105.145 25.376V21.905C105.145 21.3937 105.037 20.9863 104.82 20.683C104.604 20.371 104.244 20.215 103.741 20.215C103.23 20.215 102.805 20.3797 102.467 20.709C102.138 21.0297 101.973 21.4283 101.973 21.905V25.376C101.973 25.5493 101.913 25.6967 101.791 25.818C101.679 25.9393 101.531 26 101.349 26C101.167 26 101.02 25.9437 100.907 25.831C100.795 25.7097 100.738 25.558 100.738 25.376V19.812C100.738 19.6387 100.795 19.4913 100.907 19.37C101.029 19.2487 101.176 19.188 101.349 19.188C101.531 19.188 101.679 19.2487 101.791 19.37C101.913 19.4913 101.973 19.6387 101.973 19.812V20.267C102.199 19.929 102.498 19.6473 102.87 19.422C103.252 19.188 103.663 19.071 104.105 19.071C105.18 19.071 105.878 19.5477 106.198 20.501C106.389 20.137 106.705 19.8077 107.147 19.513C107.589 19.2183 108.057 19.071 108.551 19.071ZM118.652 22.334C118.643 22.49 118.578 22.6243 118.457 22.737C118.336 22.841 118.193 22.893 118.028 22.893H113.452C113.513 23.5257 113.751 24.0327 114.167 24.414C114.592 24.7953 115.107 24.986 115.714 24.986C116.13 24.986 116.468 24.9253 116.728 24.804C116.988 24.6827 117.218 24.5267 117.417 24.336C117.547 24.258 117.673 24.219 117.794 24.219C117.941 24.219 118.063 24.271 118.158 24.375C118.262 24.479 118.314 24.6003 118.314 24.739C118.314 24.921 118.227 25.0857 118.054 25.233C117.803 25.4843 117.469 25.6967 117.053 25.87C116.637 26.0433 116.212 26.13 115.779 26.13C115.077 26.13 114.457 25.9827 113.92 25.688C113.391 25.3933 112.98 24.9817 112.685 24.453C112.399 23.9243 112.256 23.3263 112.256 22.659C112.256 21.931 112.403 21.294 112.698 20.748C113.001 20.1933 113.396 19.7687 113.881 19.474C114.375 19.1793 114.904 19.032 115.467 19.032C116.022 19.032 116.542 19.175 117.027 19.461C117.512 19.747 117.902 20.1413 118.197 20.644C118.492 21.1467 118.643 21.71 118.652 22.334ZM115.467 20.176C114.982 20.176 114.561 20.3147 114.206 20.592C113.851 20.8607 113.617 21.281 113.504 21.853H117.339V21.749C117.296 21.2897 117.088 20.9127 116.715 20.618C116.351 20.3233 115.935 20.176 115.467 20.176ZM123.557 19.032C125.117 19.032 125.897 19.968 125.897 21.84V25.376C125.897 25.5493 125.836 25.6967 125.715 25.818C125.602 25.9393 125.455 26 125.273 26C125.1 26 124.952 25.9393 124.831 25.818C124.718 25.6967 124.662 25.5493 124.662 25.376V21.853C124.662 21.3417 124.545 20.9343 124.311 20.631C124.077 20.3277 123.696 20.176 123.167 20.176C122.82 20.176 122.504 20.254 122.218 20.41C121.941 20.5573 121.72 20.761 121.555 21.021C121.399 21.2723 121.321 21.5497 121.321 21.853V25.376C121.321 25.5493 121.26 25.6967 121.139 25.818C121.026 25.9393 120.879 26 120.697 26C120.515 26 120.368 25.9437 120.255 25.831C120.142 25.7097 120.086 25.558 120.086 25.376V19.812C120.086 19.6387 120.142 19.4913 120.255 19.37C120.376 19.2487 120.524 19.188 120.697 19.188C120.879 19.188 121.026 19.2487 121.139 19.37C121.26 19.4913 121.321 19.6387 121.321 19.812V20.267C121.546 19.9203 121.858 19.63 122.257 19.396C122.664 19.1533 123.098 19.032 123.557 19.032ZM129.587 20.397V24.271C129.587 24.7043 129.782 24.921 130.172 24.921C130.233 24.921 130.315 24.908 130.419 24.882C130.523 24.8473 130.606 24.83 130.666 24.83C130.779 24.83 130.874 24.8777 130.952 24.973C131.03 25.0683 131.069 25.1897 131.069 25.337C131.069 25.519 130.965 25.675 130.757 25.805C130.549 25.935 130.315 26 130.055 26C129.769 26 129.505 25.9697 129.262 25.909C129.028 25.8483 128.816 25.6967 128.625 25.454C128.443 25.2027 128.352 24.8257 128.352 24.323V20.397H127.598C127.434 20.397 127.295 20.345 127.182 20.241C127.078 20.1283 127.026 19.9897 127.026 19.825C127.026 19.6603 127.078 19.526 127.182 19.422C127.295 19.318 127.434 19.266 127.598 19.266H128.352V18.174C128.352 18.0007 128.409 17.8533 128.521 17.732C128.643 17.6107 128.794 17.55 128.976 17.55C129.15 17.55 129.293 17.6107 129.405 17.732C129.527 17.8533 129.587 18.0007 129.587 18.174V19.266H130.666C130.831 19.266 130.965 19.3223 131.069 19.435C131.182 19.539 131.238 19.6733 131.238 19.838C131.238 20.0027 131.182 20.137 131.069 20.241C130.965 20.345 130.831 20.397 130.666 20.397H129.587ZM138.205 19.097C138.387 19.097 138.534 19.1577 138.647 19.279C138.768 19.3917 138.829 19.5433 138.829 19.734V25.376C138.829 25.5493 138.768 25.6967 138.647 25.818C138.534 25.9393 138.387 26 138.205 26C138.023 26 137.876 25.9437 137.763 25.831C137.65 25.7097 137.594 25.558 137.594 25.376V25.038C137.369 25.3413 137.061 25.6013 136.671 25.818C136.281 26.026 135.861 26.13 135.41 26.13C134.821 26.13 134.283 25.9783 133.798 25.675C133.321 25.3717 132.944 24.9513 132.667 24.414C132.398 23.868 132.264 23.257 132.264 22.581C132.264 21.905 132.398 21.2983 132.667 20.761C132.944 20.215 133.321 19.7903 133.798 19.487C134.275 19.1837 134.799 19.032 135.371 19.032C135.83 19.032 136.255 19.1273 136.645 19.318C137.044 19.5087 137.36 19.7513 137.594 20.046V19.734C137.594 19.552 137.65 19.4003 137.763 19.279C137.876 19.1577 138.023 19.097 138.205 19.097ZM135.553 24.986C135.96 24.986 136.32 24.882 136.632 24.674C136.953 24.466 137.2 24.18 137.373 23.816C137.555 23.452 137.646 23.0403 137.646 22.581C137.646 22.1303 137.555 21.723 137.373 21.359C137.2 20.995 136.953 20.709 136.632 20.501C136.32 20.2843 135.96 20.176 135.553 20.176C135.146 20.176 134.782 20.28 134.461 20.488C134.149 20.696 133.902 20.982 133.72 21.346C133.547 21.71 133.46 22.1217 133.46 22.581C133.46 23.0403 133.547 23.452 133.72 23.816C133.902 24.18 134.149 24.466 134.461 24.674C134.782 24.882 135.146 24.986 135.553 24.986ZM142.511 20.397V24.271C142.511 24.7043 142.706 24.921 143.096 24.921C143.157 24.921 143.239 24.908 143.343 24.882C143.447 24.8473 143.53 24.83 143.59 24.83C143.703 24.83 143.798 24.8777 143.876 24.973C143.954 25.0683 143.993 25.1897 143.993 25.337C143.993 25.519 143.889 25.675 143.681 25.805C143.473 25.935 143.239 26 142.979 26C142.693 26 142.429 25.9697 142.186 25.909C141.952 25.8483 141.74 25.6967 141.549 25.454C141.367 25.2027 141.276 24.8257 141.276 24.323V20.397H140.522C140.358 20.397 140.219 20.345 140.106 20.241C140.002 20.1283 139.95 19.9897 139.95 19.825C139.95 19.6603 140.002 19.526 140.106 19.422C140.219 19.318 140.358 19.266 140.522 19.266H141.276V18.174C141.276 18.0007 141.333 17.8533 141.445 17.732C141.567 17.6107 141.718 17.55 141.9 17.55C142.074 17.55 142.217 17.6107 142.329 17.732C142.451 17.8533 142.511 18.0007 142.511 18.174V19.266H143.59C143.755 19.266 143.889 19.3223 143.993 19.435C144.106 19.539 144.162 19.6733 144.162 19.838C144.162 20.0027 144.106 20.137 143.993 20.241C143.889 20.345 143.755 20.397 143.59 20.397H142.511ZM146.774 25.376C146.774 25.5493 146.713 25.6967 146.592 25.818C146.479 25.9393 146.332 26 146.15 26C145.976 26 145.829 25.9393 145.708 25.818C145.595 25.6967 145.539 25.5493 145.539 25.376V19.747C145.539 19.5737 145.595 19.4263 145.708 19.305C145.829 19.1837 145.976 19.123 146.15 19.123C146.332 19.123 146.479 19.1837 146.592 19.305C146.713 19.4263 146.774 19.5737 146.774 19.747V25.376ZM146.15 18.265C145.898 18.265 145.716 18.2217 145.604 18.135C145.5 18.0397 145.448 17.8923 145.448 17.693V17.485C145.448 17.277 145.504 17.1297 145.617 17.043C145.738 16.9563 145.92 16.913 146.163 16.913C146.405 16.913 146.579 16.9607 146.683 17.056C146.795 17.1427 146.852 17.2857 146.852 17.485V17.693C146.852 17.901 146.795 18.0483 146.683 18.135C146.57 18.2217 146.392 18.265 146.15 18.265ZM154.997 22.594C154.997 23.27 154.845 23.8767 154.542 24.414C154.239 24.9513 153.823 25.3717 153.294 25.675C152.774 25.9783 152.198 26.13 151.565 26.13C150.932 26.13 150.352 25.9783 149.823 25.675C149.303 25.3717 148.891 24.9513 148.588 24.414C148.285 23.8767 148.133 23.27 148.133 22.594C148.133 21.918 148.285 21.307 148.588 20.761C148.891 20.215 149.303 19.7903 149.823 19.487C150.352 19.1837 150.932 19.032 151.565 19.032C152.198 19.032 152.774 19.1837 153.294 19.487C153.823 19.7903 154.239 20.215 154.542 20.761C154.845 21.307 154.997 21.918 154.997 22.594ZM153.762 22.594C153.762 22.126 153.662 21.71 153.463 21.346C153.272 20.9733 153.008 20.6873 152.67 20.488C152.341 20.28 151.972 20.176 151.565 20.176C151.158 20.176 150.785 20.28 150.447 20.488C150.118 20.6873 149.853 20.9733 149.654 21.346C149.463 21.71 149.368 22.126 149.368 22.594C149.368 23.0533 149.463 23.465 149.654 23.829C149.853 24.193 150.118 24.479 150.447 24.687C150.785 24.8863 151.158 24.986 151.565 24.986C151.972 24.986 152.341 24.8863 152.67 24.687C153.008 24.479 153.272 24.193 153.463 23.829C153.662 23.465 153.762 23.0533 153.762 22.594ZM159.904 19.032C161.464 19.032 162.244 19.968 162.244 21.84V25.376C162.244 25.5493 162.183 25.6967 162.062 25.818C161.949 25.9393 161.802 26 161.62 26C161.446 26 161.299 25.9393 161.178 25.818C161.065 25.6967 161.009 25.5493 161.009 25.376V21.853C161.009 21.3417 160.892 20.9343 160.658 20.631C160.424 20.3277 160.042 20.176 159.514 20.176C159.167 20.176 158.851 20.254 158.565 20.41C158.287 20.5573 158.066 20.761 157.902 21.021C157.746 21.2723 157.668 21.5497 157.668 21.853V25.376C157.668 25.5493 157.607 25.6967 157.486 25.818C157.373 25.9393 157.226 26 157.044 26C156.862 26 156.714 25.9437 156.602 25.831C156.489 25.7097 156.433 25.558 156.433 25.376V19.812C156.433 19.6387 156.489 19.4913 156.602 19.37C156.723 19.2487 156.87 19.188 157.044 19.188C157.226 19.188 157.373 19.2487 157.486 19.37C157.607 19.4913 157.668 19.6387 157.668 19.812V20.267C157.893 19.9203 158.205 19.63 158.604 19.396C159.011 19.1533 159.444 19.032 159.904 19.032Z" fill="#7382A3"/>
</svg>
