<svg width="384" height="67" viewBox="0 0 384 67" fill="none" xmlns="http://www.w3.org/2000/svg">
<path d="M8.75684 6.34473C8.75684 7.30632 8.60417 8.13574 8.29883 8.83301C7.99349 9.52572 7.5651 10.068 7.01367 10.46L8.79102 11.8545L7.89551 12.6816L5.79688 11.0137C5.46875 11.0957 5.1224 11.1367 4.75781 11.1367C3.97396 11.1367 3.27897 10.9453 2.67285 10.5625C2.06673 10.1751 1.59505 9.62598 1.25781 8.91504C0.92513 8.19954 0.754232 7.3724 0.745117 6.43359V5.71582C0.745117 4.75879 0.911458 3.91341 1.24414 3.17969C1.57682 2.44596 2.04622 1.88542 2.65234 1.49805C3.26302 1.10612 3.96029 0.910156 4.74414 0.910156C5.54622 0.910156 6.25033 1.10384 6.85645 1.49121C7.46712 1.87858 7.93652 2.43685 8.26465 3.16602C8.59277 3.89062 8.75684 4.73828 8.75684 5.70898V6.34473ZM7.44434 5.70215C7.44434 4.53092 7.20964 3.62858 6.74023 2.99512C6.27539 2.3571 5.61003 2.03809 4.74414 2.03809C3.91927 2.03809 3.26758 2.35482 2.78906 2.98828C2.3151 3.61719 2.07129 4.49219 2.05762 5.61328V6.34473C2.05762 7.48405 2.2946 8.38184 2.76855 9.03809C3.24707 9.69434 3.91016 10.0225 4.75781 10.0225C5.60547 10.0225 6.26172 9.71484 6.72656 9.09961C7.19141 8.47982 7.43066 7.59342 7.44434 6.44043V5.70215ZM15.5684 10.2686C15.0763 10.8473 14.3539 11.1367 13.4014 11.1367C12.613 11.1367 12.0115 10.9089 11.5968 10.4531C11.1866 9.99284 10.9792 9.3138 10.9747 8.41602V3.60352H12.2393V8.38184C12.2393 9.50293 12.6951 10.0635 13.6065 10.0635C14.5727 10.0635 15.2152 9.70345 15.5343 8.9834V3.60352H16.7989V11H15.5958L15.5684 10.2686ZM20.5207 11H19.256V3.60352H20.5207V11ZM19.1535 1.6416C19.1535 1.43652 19.215 1.26335 19.338 1.12207C19.4657 0.980794 19.6525 0.910156 19.8986 0.910156C20.1447 0.910156 20.3315 0.980794 20.4591 1.12207C20.5867 1.26335 20.6505 1.43652 20.6505 1.6416C20.6505 1.84668 20.5867 2.01758 20.4591 2.1543C20.3315 2.29102 20.1447 2.35938 19.8986 2.35938C19.6525 2.35938 19.4657 2.29102 19.338 2.1543C19.215 2.01758 19.1535 1.84668 19.1535 1.6416ZM22.6633 7.24023C22.6633 6.10547 22.9322 5.19401 23.47 4.50586C24.0077 3.81315 24.7118 3.4668 25.5823 3.4668C26.4482 3.4668 27.134 3.76302 27.6399 4.35547V0.5H28.9045V11H27.7424L27.6809 10.207C27.175 10.8268 26.4709 11.1367 25.5686 11.1367C24.7118 11.1367 24.0123 10.7858 23.47 10.084C22.9322 9.38216 22.6633 8.46615 22.6633 7.33594V7.24023ZM23.928 7.38379C23.928 8.22233 24.1011 8.87858 24.4475 9.35254C24.7939 9.8265 25.2724 10.0635 25.883 10.0635C26.6851 10.0635 27.2707 9.70345 27.6399 8.9834V5.58594C27.2616 4.88867 26.6806 4.54004 25.8967 4.54004C25.2769 4.54004 24.7939 4.7793 24.4475 5.25781C24.1011 5.73633 23.928 6.44499 23.928 7.38379ZM35.8597 11C35.7868 10.8542 35.7275 10.5944 35.682 10.2207C35.0941 10.8314 34.3922 11.1367 33.5765 11.1367C32.8473 11.1367 32.248 10.9316 31.7786 10.5215C31.3138 10.1068 31.0814 9.58268 31.0814 8.94922C31.0814 8.17904 31.373 7.58203 31.9564 7.1582C32.5443 6.72982 33.3691 6.51562 34.431 6.51562H35.6614V5.93457C35.6614 5.49251 35.5293 5.1416 35.265 4.88184C35.0006 4.61751 34.611 4.48535 34.096 4.48535C33.6448 4.48535 33.2666 4.59928 32.9613 4.82715C32.6559 5.05501 32.5032 5.33073 32.5032 5.6543H31.2318C31.2318 5.28516 31.3616 4.92969 31.6214 4.58789C31.8857 4.24154 32.2412 3.9681 32.6878 3.76758C33.139 3.56706 33.6335 3.4668 34.1712 3.4668C35.0234 3.4668 35.6911 3.68099 36.1741 4.10938C36.6572 4.5332 36.9079 5.11882 36.9261 5.86621V9.27051C36.9261 9.94954 37.0127 10.4896 37.1859 10.8906V11H35.8597ZM33.7611 10.0361C34.1575 10.0361 34.5335 9.93359 34.889 9.72852C35.2445 9.52344 35.5019 9.25684 35.6614 8.92871V7.41113H34.6702C33.1208 7.41113 32.346 7.86458 32.346 8.77148C32.346 9.16797 32.4782 9.47786 32.7425 9.70117C33.0068 9.92448 33.3463 10.0361 33.7611 10.0361ZM40.518 3.60352L40.5521 4.42383C41.0945 3.78581 41.8259 3.4668 42.7465 3.4668C43.781 3.4668 44.4851 3.86328 44.8588 4.65625C45.1049 4.30078 45.4239 4.01367 45.8158 3.79492C46.2123 3.57617 46.6794 3.4668 47.2172 3.4668C48.8396 3.4668 49.6645 4.32585 49.6918 6.04395V11H48.4271V6.11914C48.4271 5.59049 48.3064 5.19629 48.0648 4.93652C47.8233 4.6722 47.4177 4.54004 46.848 4.54004C46.3786 4.54004 45.989 4.68132 45.6791 4.96387C45.3692 5.24186 45.1892 5.61784 45.1391 6.0918V11H43.8676V6.15332C43.8676 5.0778 43.3412 4.54004 42.2885 4.54004C41.459 4.54004 40.8917 4.89323 40.5863 5.59961V11H39.3217V3.60352H40.518ZM58.3589 9.28418L60.191 3.60352H61.483L58.8306 11H57.8668L55.1871 3.60352H56.4791L58.3589 9.28418ZM62.6754 7.2334C62.6754 6.50879 62.8167 5.8571 63.0993 5.27832C63.3864 4.69954 63.7829 4.25293 64.2887 3.93848C64.7991 3.62402 65.3802 3.4668 66.0319 3.4668C67.039 3.4668 67.8525 3.81543 68.4723 4.5127C69.0967 5.20996 69.4088 6.13737 69.4088 7.29492V7.38379C69.4088 8.10384 69.2698 8.75098 68.9918 9.3252C68.7184 9.89486 68.3242 10.3392 67.8092 10.6582C67.2988 10.9772 66.7109 11.1367 66.0455 11.1367C65.0429 11.1367 64.2295 10.7881 63.6051 10.0908C62.9853 9.39355 62.6754 8.4707 62.6754 7.32227V7.2334ZM63.9469 7.38379C63.9469 8.2041 64.136 8.86263 64.5143 9.35938C64.8971 9.85612 65.4075 10.1045 66.0455 10.1045C66.6881 10.1045 67.1985 9.85384 67.5768 9.35254C67.9551 8.84668 68.1442 8.1403 68.1442 7.2334C68.1442 6.4222 67.9505 5.76595 67.5631 5.26465C67.1803 4.75879 66.6699 4.50586 66.0319 4.50586C65.4075 4.50586 64.9039 4.75423 64.5211 5.25098C64.1383 5.74772 63.9469 6.45866 63.9469 7.38379ZM74.3816 10.1045C74.8327 10.1045 75.2269 9.96777 75.5642 9.69434C75.9014 9.4209 76.0883 9.0791 76.1247 8.66895H77.321C77.2982 9.09277 77.1524 9.49609 76.8835 9.87891C76.6146 10.2617 76.2546 10.5671 75.8034 10.7949C75.3568 11.0228 74.8829 11.1367 74.3816 11.1367C73.3744 11.1367 72.5723 10.8018 71.9753 10.1318C71.3829 9.45736 71.0866 8.53678 71.0866 7.37012V7.1582C71.0866 6.43815 71.2188 5.79785 71.4831 5.2373C71.7474 4.67676 72.1257 4.24154 72.6179 3.93164C73.1146 3.62174 73.7002 3.4668 74.3747 3.4668C75.2042 3.4668 75.8923 3.71517 76.4392 4.21191C76.9906 4.70866 77.2846 5.35352 77.321 6.14648H76.1247C76.0883 5.66797 75.906 5.27604 75.5779 4.9707C75.2543 4.66081 74.8532 4.50586 74.3747 4.50586C73.7321 4.50586 73.2331 4.73828 72.8777 5.20312C72.5267 5.66341 72.3513 6.33105 72.3513 7.20605V7.44531C72.3513 8.29753 72.5267 8.95378 72.8777 9.41406C73.2286 9.87435 73.7299 10.1045 74.3816 10.1045ZM80.5369 11H79.2723V3.60352H80.5369V11ZM79.1697 1.6416C79.1697 1.43652 79.2312 1.26335 79.3543 1.12207C79.4819 0.980794 79.6687 0.910156 79.9148 0.910156C80.1609 0.910156 80.3478 0.980794 80.4754 1.12207C80.603 1.26335 80.6668 1.43652 80.6668 1.6416C80.6668 1.84668 80.603 2.01758 80.4754 2.1543C80.3478 2.29102 80.1609 2.35938 79.9148 2.35938C79.6687 2.35938 79.4819 2.29102 79.3543 2.1543C79.2312 2.01758 79.1697 1.84668 79.1697 1.6416ZM89.2489 7.38379C89.2489 8.514 88.9891 9.42318 88.4696 10.1113C87.9501 10.7949 87.2528 11.1367 86.3778 11.1367C85.4436 11.1367 84.7212 10.8063 84.2108 10.1455L84.1493 11H82.9872V0.5H84.2518V4.41699C84.7623 3.78353 85.4664 3.4668 86.3641 3.4668C87.2619 3.4668 87.966 3.80632 88.4764 4.48535C88.9914 5.16439 89.2489 6.09408 89.2489 7.27441V7.38379ZM87.9843 7.24023C87.9843 6.37891 87.8179 5.71354 87.4852 5.24414C87.1526 4.77474 86.674 4.54004 86.0497 4.54004C85.2157 4.54004 84.6164 4.92741 84.2518 5.70215V8.90137C84.6392 9.67611 85.243 10.0635 86.0634 10.0635C86.6695 10.0635 87.1412 9.82878 87.4784 9.35938C87.8156 8.88997 87.9843 8.18359 87.9843 7.24023ZM95.8349 10.2686C95.3427 10.8473 94.6204 11.1367 93.6679 11.1367C92.8795 11.1367 92.278 10.9089 91.8632 10.4531C91.4531 9.99284 91.2457 9.3138 91.2412 8.41602V3.60352H92.5058V8.38184C92.5058 9.50293 92.9616 10.0635 93.873 10.0635C94.8392 10.0635 95.4817 9.70345 95.8007 8.9834V3.60352H97.0654V11H95.8623L95.8349 10.2686ZM103.72 9.03809C103.72 8.69629 103.59 8.43197 103.33 8.24512C103.075 8.05371 102.626 7.88965 101.983 7.75293C101.345 7.61621 100.837 7.45215 100.459 7.26074C100.085 7.06934 99.8073 6.84147 99.625 6.57715C99.4473 6.31283 99.3584 5.99837 99.3584 5.63379C99.3584 5.02767 99.6136 4.51497 100.124 4.0957C100.639 3.67643 101.295 3.4668 102.093 3.4668C102.931 3.4668 103.61 3.68327 104.13 4.11621C104.654 4.54915 104.916 5.10286 104.916 5.77734H103.645C103.645 5.43099 103.496 5.13249 103.2 4.88184C102.909 4.63118 102.539 4.50586 102.093 4.50586C101.633 4.50586 101.272 4.60612 101.013 4.80664C100.753 5.00716 100.623 5.26921 100.623 5.59277C100.623 5.89811 100.744 6.12826 100.985 6.2832C101.227 6.43815 101.662 6.58626 102.291 6.72754C102.925 6.86882 103.437 7.03743 103.829 7.2334C104.221 7.42936 104.51 7.66634 104.697 7.94434C104.889 8.21777 104.984 8.55273 104.984 8.94922C104.984 9.61003 104.72 10.141 104.191 10.542C103.663 10.9385 102.977 11.1367 102.134 11.1367C101.541 11.1367 101.017 11.0319 100.562 10.8223C100.106 10.6126 99.7481 10.321 99.4883 9.94727C99.2331 9.56901 99.1055 9.16113 99.1055 8.72363H100.37C100.393 9.14746 100.562 9.4847 100.876 9.73535C101.195 9.98145 101.614 10.1045 102.134 10.1045C102.612 10.1045 102.995 10.0088 103.282 9.81738C103.574 9.62142 103.72 9.36165 103.72 9.03809ZM114.014 11.1367C113.011 11.1367 112.196 10.8086 111.567 10.1523C110.938 9.49154 110.623 8.6097 110.623 7.50684V7.27441C110.623 6.54069 110.762 5.88672 111.04 5.3125C111.323 4.73372 111.715 4.28255 112.216 3.95898C112.722 3.63086 113.269 3.4668 113.857 3.4668C114.818 3.4668 115.566 3.78353 116.099 4.41699C116.632 5.05046 116.899 5.95736 116.899 7.1377V7.66406H111.888C111.906 8.39323 112.118 8.9834 112.524 9.43457C112.934 9.88118 113.453 10.1045 114.082 10.1045C114.529 10.1045 114.907 10.0133 115.217 9.83105C115.527 9.64876 115.798 9.40723 116.03 9.10645L116.803 9.70801C116.183 10.6605 115.253 11.1367 114.014 11.1367ZM113.857 4.50586C113.346 4.50586 112.918 4.69271 112.571 5.06641C112.225 5.43555 112.011 5.95508 111.929 6.625H115.634V6.5293C115.598 5.88672 115.424 5.38997 115.114 5.03906C114.805 4.68359 114.385 4.50586 113.857 4.50586ZM123.355 10.2686C122.863 10.8473 122.14 11.1367 121.188 11.1367C120.399 11.1367 119.798 10.9089 119.383 10.4531C118.973 9.99284 118.766 9.3138 118.761 8.41602V3.60352H120.026V8.38184C120.026 9.50293 120.481 10.0635 121.393 10.0635C122.359 10.0635 123.002 9.70345 123.321 8.9834V3.60352H124.585V11H123.382L123.355 10.2686ZM128.122 3.60352L128.157 4.42383C128.699 3.78581 129.43 3.4668 130.351 3.4668C131.385 3.4668 132.09 3.86328 132.463 4.65625C132.709 4.30078 133.028 4.01367 133.42 3.79492C133.817 3.57617 134.284 3.4668 134.822 3.4668C136.444 3.4668 137.269 4.32585 137.296 6.04395V11H136.032V6.11914C136.032 5.59049 135.911 5.19629 135.669 4.93652C135.428 4.6722 135.022 4.54004 134.452 4.54004C133.983 4.54004 133.593 4.68132 133.284 4.96387C132.974 5.24186 132.794 5.61784 132.744 6.0918V11H131.472V6.15332C131.472 5.0778 130.946 4.54004 129.893 4.54004C129.064 4.54004 128.496 4.89323 128.191 5.59961V11H126.926V3.60352H128.122ZM144.719 3.60352L144.76 4.5332C145.325 3.82227 146.064 3.4668 146.975 3.4668C148.538 3.4668 149.327 4.34863 149.34 6.1123V11H148.076V6.10547C148.071 5.57227 147.948 5.17806 147.707 4.92285C147.47 4.66764 147.098 4.54004 146.592 4.54004C146.182 4.54004 145.822 4.64941 145.512 4.86816C145.202 5.08691 144.961 5.37402 144.788 5.72949V11H143.523V3.60352H144.719ZM154.737 11.1367C153.734 11.1367 152.919 10.8086 152.29 10.1523C151.661 9.49154 151.346 8.6097 151.346 7.50684V7.27441C151.346 6.54069 151.485 5.88672 151.763 5.3125C152.046 4.73372 152.438 4.28255 152.939 3.95898C153.445 3.63086 153.992 3.4668 154.58 3.4668C155.541 3.4668 156.289 3.78353 156.822 4.41699C157.355 5.05046 157.622 5.95736 157.622 7.1377V7.66406H152.611C152.629 8.39323 152.841 8.9834 153.247 9.43457C153.657 9.88118 154.176 10.1045 154.805 10.1045C155.252 10.1045 155.63 10.0133 155.94 9.83105C156.25 9.64876 156.521 9.40723 156.754 9.10645L157.526 9.70801C156.906 10.6605 155.976 11.1367 154.737 11.1367ZM154.58 4.50586C154.069 4.50586 153.641 4.69271 153.295 5.06641C152.948 5.43555 152.734 5.95508 152.652 6.625H156.357V6.5293C156.321 5.88672 156.147 5.38997 155.837 5.03906C155.528 4.68359 155.108 4.50586 154.58 4.50586ZM159.47 12.9824L158.753 12.4902C159.181 11.8932 159.404 11.278 159.423 10.6445V9.50293H160.66V10.4941C160.66 10.9544 160.546 11.4147 160.318 11.875C160.095 12.3353 159.812 12.7044 159.47 12.9824ZM169.641 11.1367C168.639 11.1367 167.823 10.8086 167.194 10.1523C166.565 9.49154 166.251 8.6097 166.251 7.50684V7.27441C166.251 6.54069 166.39 5.88672 166.668 5.3125C166.95 4.73372 167.342 4.28255 167.844 3.95898C168.349 3.63086 168.896 3.4668 169.484 3.4668C170.446 3.4668 171.193 3.78353 171.726 4.41699C172.26 5.05046 172.526 5.95736 172.526 7.1377V7.66406H167.515C167.534 8.39323 167.746 8.9834 168.151 9.43457C168.561 9.88118 169.081 10.1045 169.71 10.1045C170.156 10.1045 170.535 10.0133 170.845 9.83105C171.154 9.64876 171.426 9.40723 171.658 9.10645L172.431 9.70801C171.811 10.6605 170.881 11.1367 169.641 11.1367ZM169.484 4.50586C168.974 4.50586 168.545 4.69271 168.199 5.06641C167.853 5.43555 167.639 5.95508 167.556 6.625H171.262V6.5293C171.225 5.88672 171.052 5.38997 170.742 5.03906C170.432 4.68359 170.013 4.50586 169.484 4.50586ZM177.991 4.73828C177.8 4.70638 177.592 4.69043 177.369 4.69043C176.54 4.69043 175.977 5.04362 175.681 5.75V11H174.416V3.60352H175.646L175.667 4.45801C176.082 3.7972 176.67 3.4668 177.431 3.4668C177.677 3.4668 177.864 3.4987 177.991 3.5625V4.73828ZM183.873 11C183.8 10.8542 183.741 10.5944 183.695 10.2207C183.107 10.8314 182.406 11.1367 181.59 11.1367C180.861 11.1367 180.261 10.9316 179.792 10.5215C179.327 10.1068 179.095 9.58268 179.095 8.94922C179.095 8.17904 179.386 7.58203 179.97 7.1582C180.558 6.72982 181.382 6.51562 182.444 6.51562H183.675V5.93457C183.675 5.49251 183.543 5.1416 183.278 4.88184C183.014 4.61751 182.624 4.48535 182.109 4.48535C181.658 4.48535 181.28 4.59928 180.975 4.82715C180.669 5.05501 180.517 5.33073 180.517 5.6543H179.245C179.245 5.28516 179.375 4.92969 179.635 4.58789C179.899 4.24154 180.255 3.9681 180.701 3.76758C181.152 3.56706 181.647 3.4668 182.185 3.4668C183.037 3.4668 183.704 3.68099 184.188 4.10938C184.671 4.5332 184.921 5.11882 184.939 5.86621V9.27051C184.939 9.94954 185.026 10.4896 185.199 10.8906V11H183.873ZM181.774 10.0361C182.171 10.0361 182.547 9.93359 182.902 9.72852C183.258 9.52344 183.515 9.25684 183.675 8.92871V7.41113H182.684C181.134 7.41113 180.359 7.86458 180.359 8.77148C180.359 9.16797 180.492 9.47786 180.756 9.70117C181.02 9.92448 181.36 10.0361 181.774 10.0361ZM189.058 1.8125V3.60352H190.439V4.58105H189.058V9.16797C189.058 9.46419 189.119 9.6875 189.242 9.83789C189.365 9.98372 189.575 10.0566 189.871 10.0566C190.017 10.0566 190.218 10.0293 190.473 9.97461V11C190.14 11.0911 189.816 11.1367 189.502 11.1367C188.937 11.1367 188.511 10.9658 188.224 10.624C187.937 10.2822 187.793 9.79688 187.793 9.16797V4.58105H186.446V3.60352H187.793V1.8125H189.058ZM199.201 10.1045C199.653 10.1045 200.047 9.96777 200.384 9.69434C200.721 9.4209 200.908 9.0791 200.945 8.66895H202.141C202.118 9.09277 201.972 9.49609 201.703 9.87891C201.434 10.2617 201.074 10.5671 200.623 10.7949C200.177 11.0228 199.703 11.1367 199.201 11.1367C198.194 11.1367 197.392 10.8018 196.795 10.1318C196.203 9.45736 195.906 8.53678 195.906 7.37012V7.1582C195.906 6.43815 196.039 5.79785 196.303 5.2373C196.567 4.67676 196.946 4.24154 197.438 3.93164C197.934 3.62174 198.52 3.4668 199.195 3.4668C200.024 3.4668 200.712 3.71517 201.259 4.21191C201.81 4.70866 202.104 5.35352 202.141 6.14648H200.945C200.908 5.66797 200.726 5.27604 200.398 4.9707C200.074 4.66081 199.673 4.50586 199.195 4.50586C198.552 4.50586 198.053 4.73828 197.698 5.20312C197.347 5.66341 197.171 6.33105 197.171 7.20605V7.44531C197.171 8.29753 197.347 8.95378 197.698 9.41406C198.048 9.87435 198.55 10.1045 199.201 10.1045ZM203.648 7.2334C203.648 6.50879 203.789 5.8571 204.072 5.27832C204.359 4.69954 204.755 4.25293 205.261 3.93848C205.771 3.62402 206.353 3.4668 207.004 3.4668C208.011 3.4668 208.825 3.81543 209.445 4.5127C210.069 5.20996 210.381 6.13737 210.381 7.29492V7.38379C210.381 8.10384 210.242 8.75098 209.964 9.3252C209.691 9.89486 209.297 10.3392 208.782 10.6582C208.271 10.9772 207.683 11.1367 207.018 11.1367C206.015 11.1367 205.202 10.7881 204.577 10.0908C203.958 9.39355 203.648 8.4707 203.648 7.32227V7.2334ZM204.919 7.38379C204.919 8.2041 205.108 8.86263 205.487 9.35938C205.869 9.85612 206.38 10.1045 207.018 10.1045C207.66 10.1045 208.171 9.85384 208.549 9.35254C208.927 8.84668 209.117 8.1403 209.117 7.2334C209.117 6.4222 208.923 5.76595 208.535 5.26465C208.153 4.75879 207.642 4.50586 207.004 4.50586C206.38 4.50586 205.876 4.75423 205.493 5.25098C205.111 5.74772 204.919 6.45866 204.919 7.38379ZM213.583 3.60352L213.624 4.5332C214.19 3.82227 214.928 3.4668 215.839 3.4668C217.402 3.4668 218.191 4.34863 218.204 6.1123V11H216.94V6.10547C216.935 5.57227 216.812 5.17806 216.571 4.92285C216.334 4.66764 215.962 4.54004 215.456 4.54004C215.046 4.54004 214.686 4.64941 214.376 4.86816C214.066 5.08691 213.825 5.37402 213.652 5.72949V11H212.387V3.60352H213.583ZM224.838 9.03809C224.838 8.69629 224.708 8.43197 224.449 8.24512C224.194 8.05371 223.745 7.88965 223.102 7.75293C222.464 7.61621 221.956 7.45215 221.578 7.26074C221.204 7.06934 220.926 6.84147 220.744 6.57715C220.566 6.31283 220.477 5.99837 220.477 5.63379C220.477 5.02767 220.732 4.51497 221.243 4.0957C221.758 3.67643 222.414 3.4668 223.211 3.4668C224.05 3.4668 224.729 3.68327 225.249 4.11621C225.773 4.54915 226.035 5.10286 226.035 5.77734H224.763C224.763 5.43099 224.615 5.13249 224.319 4.88184C224.027 4.63118 223.658 4.50586 223.211 4.50586C222.751 4.50586 222.391 4.60612 222.131 4.80664C221.872 5.00716 221.742 5.26921 221.742 5.59277C221.742 5.89811 221.862 6.12826 222.104 6.2832C222.346 6.43815 222.781 6.58626 223.41 6.72754C224.043 6.86882 224.556 7.03743 224.948 7.2334C225.34 7.42936 225.629 7.66634 225.816 7.94434C226.007 8.21777 226.103 8.55273 226.103 8.94922C226.103 9.61003 225.839 10.141 225.31 10.542C224.781 10.9385 224.096 11.1367 223.252 11.1367C222.66 11.1367 222.136 11.0319 221.68 10.8223C221.224 10.6126 220.867 10.321 220.607 9.94727C220.352 9.56901 220.224 9.16113 220.224 8.72363H221.489C221.512 9.14746 221.68 9.4847 221.995 9.73535C222.314 9.98145 222.733 10.1045 223.252 10.1045C223.731 10.1045 224.114 10.0088 224.401 9.81738C224.693 9.62142 224.838 9.36165 224.838 9.03809ZM231.24 11.1367C230.237 11.1367 229.421 10.8086 228.793 10.1523C228.164 9.49154 227.849 8.6097 227.849 7.50684V7.27441C227.849 6.54069 227.988 5.88672 228.266 5.3125C228.549 4.73372 228.941 4.28255 229.442 3.95898C229.948 3.63086 230.495 3.4668 231.083 3.4668C232.044 3.4668 232.792 3.78353 233.325 4.41699C233.858 5.05046 234.125 5.95736 234.125 7.1377V7.66406H229.114C229.132 8.39323 229.344 8.9834 229.75 9.43457C230.16 9.88118 230.679 10.1045 231.308 10.1045C231.755 10.1045 232.133 10.0133 232.443 9.83105C232.753 9.64876 233.024 9.40723 233.256 9.10645L234.029 9.70801C233.409 10.6605 232.479 11.1367 231.24 11.1367ZM231.083 4.50586C230.572 4.50586 230.144 4.69271 229.797 5.06641C229.451 5.43555 229.237 5.95508 229.155 6.625H232.86V6.5293C232.823 5.88672 232.65 5.38997 232.34 5.03906C232.03 4.68359 231.611 4.50586 231.083 4.50586ZM238.981 10.1045C239.432 10.1045 239.826 9.96777 240.164 9.69434C240.501 9.4209 240.688 9.0791 240.724 8.66895H241.921C241.898 9.09277 241.752 9.49609 241.483 9.87891C241.214 10.2617 240.854 10.5671 240.403 10.7949C239.956 11.0228 239.482 11.1367 238.981 11.1367C237.974 11.1367 237.172 10.8018 236.575 10.1318C235.982 9.45736 235.686 8.53678 235.686 7.37012V7.1582C235.686 6.43815 235.818 5.79785 236.083 5.2373C236.347 4.67676 236.725 4.24154 237.217 3.93164C237.714 3.62174 238.3 3.4668 238.974 3.4668C239.804 3.4668 240.492 3.71517 241.039 4.21191C241.59 4.70866 241.884 5.35352 241.921 6.14648H240.724C240.688 5.66797 240.506 5.27604 240.177 4.9707C239.854 4.66081 239.453 4.50586 238.974 4.50586C238.332 4.50586 237.833 4.73828 237.477 5.20312C237.126 5.66341 236.951 6.33105 236.951 7.20605V7.44531C236.951 8.29753 237.126 8.95378 237.477 9.41406C237.828 9.87435 238.329 10.1045 238.981 10.1045ZM245.478 1.8125V3.60352H246.859V4.58105H245.478V9.16797C245.478 9.46419 245.54 9.6875 245.663 9.83789C245.786 9.98372 245.995 10.0566 246.292 10.0566C246.438 10.0566 246.638 10.0293 246.893 9.97461V11C246.561 11.0911 246.237 11.1367 245.923 11.1367C245.357 11.1367 244.931 10.9658 244.644 10.624C244.357 10.2822 244.214 9.79688 244.214 9.16797V4.58105H242.867V3.60352H244.214V1.8125H245.478ZM251.832 11.1367C250.829 11.1367 250.013 10.8086 249.385 10.1523C248.756 9.49154 248.441 8.6097 248.441 7.50684V7.27441C248.441 6.54069 248.58 5.88672 248.858 5.3125C249.141 4.73372 249.533 4.28255 250.034 3.95898C250.54 3.63086 251.087 3.4668 251.675 3.4668C252.636 3.4668 253.384 3.78353 253.917 4.41699C254.45 5.05046 254.717 5.95736 254.717 7.1377V7.66406H249.706C249.724 8.39323 249.936 8.9834 250.342 9.43457C250.752 9.88118 251.271 10.1045 251.9 10.1045C252.347 10.1045 252.725 10.0133 253.035 9.83105C253.345 9.64876 253.616 9.40723 253.848 9.10645L254.621 9.70801C254.001 10.6605 253.071 11.1367 251.832 11.1367ZM251.675 4.50586C251.164 4.50586 250.736 4.69271 250.389 5.06641C250.043 5.43555 249.829 5.95508 249.747 6.625H253.452V6.5293C253.415 5.88672 253.242 5.38997 252.932 5.03906C252.623 4.68359 252.203 4.50586 251.675 4.50586ZM258.322 1.8125V3.60352H259.703V4.58105H258.322V9.16797C258.322 9.46419 258.384 9.6875 258.507 9.83789C258.63 9.98372 258.839 10.0566 259.136 10.0566C259.281 10.0566 259.482 10.0293 259.737 9.97461V11C259.405 11.0911 259.081 11.1367 258.766 11.1367C258.201 11.1367 257.775 10.9658 257.488 10.624C257.201 10.2822 257.057 9.79688 257.057 9.16797V4.58105H255.711V3.60352H257.057V1.8125H258.322ZM266.173 10.2686C265.681 10.8473 264.958 11.1367 264.006 11.1367C263.217 11.1367 262.616 10.9089 262.201 10.4531C261.791 9.99284 261.584 9.3138 261.579 8.41602V3.60352H262.844V8.38184C262.844 9.50293 263.299 10.0635 264.211 10.0635C265.177 10.0635 265.82 9.70345 266.139 8.9834V3.60352H267.403V11H266.2L266.173 10.2686ZM272.82 11.1367C271.818 11.1367 271.002 10.8086 270.373 10.1523C269.744 9.49154 269.43 8.6097 269.43 7.50684V7.27441C269.43 6.54069 269.569 5.88672 269.847 5.3125C270.129 4.73372 270.521 4.28255 271.022 3.95898C271.528 3.63086 272.075 3.4668 272.663 3.4668C273.625 3.4668 274.372 3.78353 274.905 4.41699C275.439 5.05046 275.705 5.95736 275.705 7.1377V7.66406H270.694C270.713 8.39323 270.925 8.9834 271.33 9.43457C271.74 9.88118 272.26 10.1045 272.889 10.1045C273.335 10.1045 273.714 10.0133 274.023 9.83105C274.333 9.64876 274.605 9.40723 274.837 9.10645L275.609 9.70801C274.99 10.6605 274.06 11.1367 272.82 11.1367ZM272.663 4.50586C272.153 4.50586 271.724 4.69271 271.378 5.06641C271.032 5.43555 270.817 5.95508 270.735 6.625H274.44V6.5293C274.404 5.88672 274.231 5.38997 273.921 5.03906C273.611 4.68359 273.192 4.50586 272.663 4.50586ZM281.17 4.73828C280.979 4.70638 280.771 4.69043 280.548 4.69043C279.719 4.69043 279.156 5.04362 278.859 5.75V11H277.595V3.60352H278.825L278.846 4.45801C279.261 3.7972 279.848 3.4668 280.609 3.4668C280.856 3.4668 281.042 3.4987 281.17 3.5625V4.73828ZM289.092 9.28418L290.924 3.60352H292.216L289.564 11H288.6L285.92 3.60352H287.212L289.092 9.28418ZM293.409 7.2334C293.409 6.50879 293.55 5.8571 293.832 5.27832C294.12 4.69954 294.516 4.25293 295.022 3.93848C295.532 3.62402 296.113 3.4668 296.765 3.4668C297.772 3.4668 298.586 3.81543 299.205 4.5127C299.83 5.20996 300.142 6.13737 300.142 7.29492V7.38379C300.142 8.10384 300.003 8.75098 299.725 9.3252C299.452 9.89486 299.057 10.3392 298.542 10.6582C298.032 10.9772 297.444 11.1367 296.779 11.1367C295.776 11.1367 294.963 10.7881 294.338 10.0908C293.718 9.39355 293.409 8.4707 293.409 7.32227V7.2334ZM294.68 7.38379C294.68 8.2041 294.869 8.86263 295.247 9.35938C295.63 9.85612 296.141 10.1045 296.779 10.1045C297.421 10.1045 297.932 9.85384 298.31 9.35254C298.688 8.84668 298.877 8.1403 298.877 7.2334C298.877 6.4222 298.684 5.76595 298.296 5.26465C297.913 4.75879 297.403 4.50586 296.765 4.50586C296.141 4.50586 295.637 4.75423 295.254 5.25098C294.871 5.74772 294.68 6.45866 294.68 7.38379ZM303.522 11H302.257V0.5H303.522V11ZM310.539 10.2686C310.046 10.8473 309.324 11.1367 308.372 11.1367C307.583 11.1367 306.982 10.9089 306.567 10.4531C306.157 9.99284 305.949 9.3138 305.945 8.41602V3.60352H307.21V8.38184C307.21 9.50293 307.665 10.0635 308.577 10.0635C309.543 10.0635 310.185 9.70345 310.504 8.9834V3.60352H311.769V11H310.566L310.539 10.2686ZM320.365 7.38379C320.365 8.50944 320.107 9.41634 319.592 10.1045C319.077 10.7926 318.38 11.1367 317.501 11.1367C316.603 11.1367 315.896 10.8519 315.381 10.2822V13.8438H314.117V3.60352H315.272L315.334 4.42383C315.849 3.78581 316.564 3.4668 317.48 3.4668C318.369 3.4668 319.071 3.80176 319.586 4.47168C320.105 5.1416 320.365 6.07357 320.365 7.26758V7.38379ZM319.1 7.24023C319.1 6.40625 318.922 5.74772 318.567 5.26465C318.212 4.78158 317.724 4.54004 317.104 4.54004C316.338 4.54004 315.764 4.87956 315.381 5.55859V9.09277C315.76 9.76725 316.338 10.1045 317.118 10.1045C317.724 10.1045 318.205 9.86523 318.56 9.38672C318.92 8.90365 319.1 8.18815 319.1 7.24023ZM324.114 1.8125V3.60352H325.495V4.58105H324.114V9.16797C324.114 9.46419 324.175 9.6875 324.299 9.83789C324.422 9.98372 324.631 10.0566 324.927 10.0566C325.073 10.0566 325.274 10.0293 325.529 9.97461V11C325.196 11.0911 324.873 11.1367 324.558 11.1367C323.993 11.1367 323.567 10.9658 323.28 10.624C322.993 10.2822 322.849 9.79688 322.849 9.16797V4.58105H321.503V3.60352H322.849V1.8125H324.114ZM331.965 11C331.892 10.8542 331.832 10.5944 331.787 10.2207C331.199 10.8314 330.497 11.1367 329.681 11.1367C328.952 11.1367 328.353 10.9316 327.884 10.5215C327.419 10.1068 327.186 9.58268 327.186 8.94922C327.186 8.17904 327.478 7.58203 328.061 7.1582C328.649 6.72982 329.474 6.51562 330.536 6.51562H331.766V5.93457C331.766 5.49251 331.634 5.1416 331.37 4.88184C331.106 4.61751 330.716 4.48535 330.201 4.48535C329.75 4.48535 329.372 4.59928 329.066 4.82715C328.761 5.05501 328.608 5.33073 328.608 5.6543H327.337C327.337 5.28516 327.467 4.92969 327.726 4.58789C327.991 4.24154 328.346 3.9681 328.793 3.76758C329.244 3.56706 329.738 3.4668 330.276 3.4668C331.128 3.4668 331.796 3.68099 332.279 4.10938C332.762 4.5332 333.013 5.11882 333.031 5.86621V9.27051C333.031 9.94954 333.118 10.4896 333.291 10.8906V11H331.965ZM329.866 10.0361C330.262 10.0361 330.638 9.93359 330.994 9.72852C331.349 9.52344 331.607 9.25684 331.766 8.92871V7.41113H330.775C329.226 7.41113 328.451 7.86458 328.451 8.77148C328.451 9.16797 328.583 9.47786 328.847 9.70117C329.112 9.92448 329.451 10.0361 329.866 10.0361ZM337.149 1.8125V3.60352H338.53V4.58105H337.149V9.16797C337.149 9.46419 337.211 9.6875 337.334 9.83789C337.457 9.98372 337.667 10.0566 337.963 10.0566C338.109 10.0566 338.309 10.0293 338.564 9.97461V11C338.232 11.0911 337.908 11.1367 337.594 11.1367C337.028 11.1367 336.602 10.9658 336.315 10.624C336.028 10.2822 335.885 9.79688 335.885 9.16797V4.58105H334.538V3.60352H335.885V1.8125H337.149ZM341.808 11H340.543V3.60352H341.808V11ZM340.44 1.6416C340.44 1.43652 340.502 1.26335 340.625 1.12207C340.753 0.980794 340.939 0.910156 341.185 0.910156C341.432 0.910156 341.618 0.980794 341.746 1.12207C341.874 1.26335 341.937 1.43652 341.937 1.6416C341.937 1.84668 341.874 2.01758 341.746 2.1543C341.618 2.29102 341.432 2.35938 341.185 2.35938C340.939 2.35938 340.753 2.29102 340.625 2.1543C340.502 2.01758 340.44 1.84668 340.44 1.6416ZM350.52 7.38379C350.52 8.514 350.26 9.42318 349.74 10.1113C349.221 10.7949 348.523 11.1367 347.648 11.1367C346.714 11.1367 345.992 10.8063 345.481 10.1455L345.42 11H344.258V0.5H345.522V4.41699C346.033 3.78353 346.737 3.4668 347.635 3.4668C348.533 3.4668 349.237 3.80632 349.747 4.48535C350.262 5.16439 350.52 6.09408 350.52 7.27441V7.38379ZM349.255 7.24023C349.255 6.37891 349.089 5.71354 348.756 5.24414C348.423 4.77474 347.945 4.54004 347.32 4.54004C346.486 4.54004 345.887 4.92741 345.522 5.70215V8.90137C345.91 9.67611 346.514 10.0635 347.334 10.0635C347.94 10.0635 348.412 9.82878 348.749 9.35938C349.086 8.88997 349.255 8.18359 349.255 7.24023ZM357.106 10.2686C356.613 10.8473 355.891 11.1367 354.939 11.1367C354.15 11.1367 353.549 10.9089 353.134 10.4531C352.724 9.99284 352.516 9.3138 352.512 8.41602V3.60352H353.776V8.38184C353.776 9.50293 354.232 10.0635 355.144 10.0635C356.11 10.0635 356.752 9.70345 357.071 8.9834V3.60352H358.336V11H357.133L357.106 10.2686ZM364.99 9.03809C364.99 8.69629 364.861 8.43197 364.601 8.24512C364.346 8.05371 363.897 7.88965 363.254 7.75293C362.616 7.61621 362.108 7.45215 361.73 7.26074C361.356 7.06934 361.078 6.84147 360.896 6.57715C360.718 6.31283 360.629 5.99837 360.629 5.63379C360.629 5.02767 360.884 4.51497 361.395 4.0957C361.91 3.67643 362.566 3.4668 363.363 3.4668C364.202 3.4668 364.881 3.68327 365.401 4.11621C365.925 4.54915 366.187 5.10286 366.187 5.77734H364.915C364.915 5.43099 364.767 5.13249 364.471 4.88184C364.179 4.63118 363.81 4.50586 363.363 4.50586C362.903 4.50586 362.543 4.60612 362.283 4.80664C362.024 5.00716 361.894 5.26921 361.894 5.59277C361.894 5.89811 362.014 6.12826 362.256 6.2832C362.498 6.43815 362.933 6.58626 363.562 6.72754C364.195 6.86882 364.708 7.03743 365.1 7.2334C365.492 7.42936 365.781 7.66634 365.968 7.94434C366.159 8.21777 366.255 8.55273 366.255 8.94922C366.255 9.61003 365.991 10.141 365.462 10.542C364.933 10.9385 364.248 11.1367 363.404 11.1367C362.812 11.1367 362.288 11.0319 361.832 10.8223C361.376 10.6126 361.019 10.321 360.759 9.94727C360.504 9.56901 360.376 9.16113 360.376 8.72363H361.641C361.664 9.14746 361.832 9.4847 362.147 9.73535C362.466 9.98145 362.885 10.1045 363.404 10.1045C363.883 10.1045 364.266 10.0088 364.553 9.81738C364.845 9.62142 364.99 9.36165 364.99 9.03809ZM376.782 10.2686C376.289 10.8473 375.567 11.1367 374.615 11.1367C373.826 11.1367 373.225 10.9089 372.81 10.4531C372.4 9.99284 372.192 9.3138 372.188 8.41602V3.60352H373.452V8.38184C373.452 9.50293 373.908 10.0635 374.82 10.0635C375.786 10.0635 376.428 9.70345 376.747 8.9834V3.60352H378.012V11H376.809L376.782 10.2686ZM382.076 1.8125V3.60352H383.456V4.58105H382.076V9.16797C382.076 9.46419 382.137 9.6875 382.26 9.83789C382.383 9.98372 382.593 10.0566 382.889 10.0566C383.035 10.0566 383.235 10.0293 383.491 9.97461V11C383.158 11.0911 382.834 11.1367 382.52 11.1367C381.955 11.1367 381.529 10.9658 381.242 10.624C380.954 10.2822 380.811 9.79688 380.811 9.16797V4.58105H379.464V3.60352H380.811V1.8125H382.076ZM2.15332 30.6035L2.19434 31.5332C2.75944 30.8223 3.49772 30.4668 4.40918 30.4668C5.97233 30.4668 6.76074 31.3486 6.77441 33.1123V38H5.50977V33.1055C5.50521 32.5723 5.38216 32.1781 5.14062 31.9229C4.90365 31.6676 4.53223 31.54 4.02637 31.54C3.61621 31.54 3.25618 31.6494 2.94629 31.8682C2.63639 32.0869 2.39486 32.374 2.22168 32.7295V38H0.957031V30.6035H2.15332ZM13.668 38C13.5951 37.8542 13.5359 37.5944 13.4903 37.2207C12.9024 37.8314 12.2006 38.1367 11.3848 38.1367C10.6557 38.1367 10.0564 37.9316 9.58699 37.5215C9.12215 37.1068 8.88973 36.5827 8.88973 35.9492C8.88973 35.179 9.18139 34.582 9.76473 34.1582C10.3526 33.7298 11.1775 33.5156 12.2393 33.5156H13.4698V32.9346C13.4698 32.4925 13.3376 32.1416 13.0733 31.8818C12.809 31.6175 12.4193 31.4854 11.9044 31.4854C11.4532 31.4854 11.0749 31.5993 10.7696 31.8271C10.4643 32.055 10.3116 32.3307 10.3116 32.6543H9.04012C9.04012 32.2852 9.17 31.9297 9.42977 31.5879C9.69409 31.2415 10.0496 30.9681 10.4962 30.7676C10.9473 30.5671 11.4418 30.4668 11.9796 30.4668C12.8318 30.4668 13.4994 30.681 13.9825 31.1094C14.4656 31.5332 14.7162 32.1188 14.7345 32.8662V36.2705C14.7345 36.9495 14.821 37.4896 14.9942 37.8906V38H13.668ZM11.5694 37.0361C11.9659 37.0361 12.3419 36.9336 12.6973 36.7285C13.0528 36.5234 13.3103 36.2568 13.4698 35.9287V34.4111H12.4786C10.9291 34.4111 10.1544 34.8646 10.1544 35.7715C10.1544 36.168 10.2865 36.4779 10.5509 36.7012C10.8152 36.9245 11.1547 37.0361 11.5694 37.0361ZM18.3263 30.6035L18.3605 31.4238C18.9028 30.7858 19.6343 30.4668 20.5548 30.4668C21.5893 30.4668 22.2935 30.8633 22.6671 31.6562C22.9132 31.3008 23.2323 31.0137 23.6242 30.7949C24.0207 30.5762 24.4878 30.4668 25.0255 30.4668C26.6479 30.4668 27.4728 31.3258 27.5002 33.0439V38H26.2355V33.1191C26.2355 32.5905 26.1147 32.1963 25.8732 31.9365C25.6317 31.6722 25.2261 31.54 24.6564 31.54C24.187 31.54 23.7974 31.6813 23.4875 31.9639C23.1776 32.2419 22.9976 32.6178 22.9474 33.0918V38H21.6759V33.1533C21.6759 32.0778 21.1496 31.54 20.0968 31.54C19.2674 31.54 18.7 31.8932 18.3947 32.5996V38H17.13V30.6035H18.3263ZM29.8616 37.3369C29.8616 37.1182 29.9254 36.9359 30.053 36.79C30.1851 36.6442 30.3811 36.5713 30.6409 36.5713C30.9006 36.5713 31.0966 36.6442 31.2288 36.79C31.3655 36.9359 31.4338 37.1182 31.4338 37.3369C31.4338 37.5465 31.3655 37.722 31.2288 37.8633C31.0966 38.0046 30.9006 38.0752 30.6409 38.0752C30.3811 38.0752 30.1851 38.0046 30.053 37.8633C29.9254 37.722 29.8616 37.5465 29.8616 37.3369ZM43.6625 33.3994H39.349V36.9268H44.3598V38H38.0365V28.0469H44.2914V29.127H39.349V32.3262H43.6625V33.3994ZM50.6587 37.2686C50.1665 37.8473 49.4442 38.1367 48.4917 38.1367C47.7033 38.1367 47.1017 37.9089 46.687 37.4531C46.2768 36.9928 46.0695 36.3138 46.0649 35.416V30.6035H47.3296V35.3818C47.3296 36.5029 47.7853 37.0635 48.6968 37.0635C49.6629 37.0635 50.3055 36.7035 50.6245 35.9834V30.6035H51.8891V38H50.686L50.6587 37.2686ZM62.6959 37.2686C62.2038 37.8473 61.4814 38.1367 60.5289 38.1367C59.7405 38.1367 59.139 37.9089 58.7243 37.4531C58.3141 36.9928 58.1067 36.3138 58.1022 35.416V30.6035H59.3668V35.3818C59.3668 36.5029 59.8226 37.0635 60.734 37.0635C61.7002 37.0635 62.3427 36.7035 62.6618 35.9834V30.6035H63.9264V38H62.7233L62.6959 37.2686ZM70.5808 36.0381C70.5808 35.6963 70.4509 35.432 70.1911 35.2451C69.9359 35.0537 69.487 34.8896 68.8445 34.7529C68.2064 34.6162 67.6983 34.4521 67.32 34.2607C66.9463 34.0693 66.6683 33.8415 66.4861 33.5771C66.3083 33.3128 66.2195 32.9984 66.2195 32.6338C66.2195 32.0277 66.4747 31.515 66.9851 31.0957C67.5001 30.6764 68.1563 30.4668 68.9538 30.4668C69.7924 30.4668 70.4714 30.6833 70.9909 31.1162C71.515 31.5492 71.7771 32.1029 71.7771 32.7773H70.5056C70.5056 32.431 70.3575 32.1325 70.0612 31.8818C69.7696 31.6312 69.4004 31.5059 68.9538 31.5059C68.4935 31.5059 68.1335 31.6061 67.8737 31.8066C67.614 32.0072 67.4841 32.2692 67.4841 32.5928C67.4841 32.8981 67.6049 33.1283 67.8464 33.2832C68.0879 33.4382 68.5232 33.5863 69.1521 33.7275C69.7855 33.8688 70.2982 34.0374 70.6902 34.2334C71.0821 34.4294 71.3715 34.6663 71.5583 34.9443C71.7497 35.2178 71.8454 35.5527 71.8454 35.9492C71.8454 36.61 71.5811 37.141 71.0525 37.542C70.5238 37.9385 69.8379 38.1367 68.9948 38.1367C68.4024 38.1367 67.8783 38.0319 67.4226 37.8223C66.9668 37.6126 66.6091 37.321 66.3493 36.9473C66.0941 36.569 65.9665 36.1611 65.9665 35.7236H67.2312C67.254 36.1475 67.4226 36.4847 67.737 36.7354C68.056 36.9814 68.4753 37.1045 68.9948 37.1045C69.4734 37.1045 69.8562 37.0088 70.1433 36.8174C70.4349 36.6214 70.5808 36.3617 70.5808 36.0381ZM78.4793 37.2686C77.9871 37.8473 77.2648 38.1367 76.3123 38.1367C75.5239 38.1367 74.9223 37.9089 74.5076 37.4531C74.0975 36.9928 73.8901 36.3138 73.8855 35.416V30.6035H75.1502V35.3818C75.1502 36.5029 75.6059 37.0635 76.5174 37.0635C77.4835 37.0635 78.1261 36.7035 78.4451 35.9834V30.6035H79.7098V38H78.5066L78.4793 37.2686ZM88.3906 36.2842L90.2226 30.6035H91.5146L88.8623 38H87.8984L85.2187 30.6035H86.5107L88.3906 36.2842ZM94.5254 38H93.2608V30.6035H94.5254V38ZM93.1582 28.6416C93.1582 28.4365 93.2198 28.2633 93.3428 28.1221C93.4704 27.9808 93.6573 27.9102 93.9034 27.9102C94.1495 27.9102 94.3363 27.9808 94.4639 28.1221C94.5915 28.2633 94.6553 28.4365 94.6553 28.6416C94.6553 28.8467 94.5915 29.0176 94.4639 29.1543C94.3363 29.291 94.1495 29.3594 93.9034 29.3594C93.6573 29.3594 93.4704 29.291 93.3428 29.1543C93.2198 29.0176 93.1582 28.8467 93.1582 28.6416ZM96.6681 34.2402C96.6681 33.1055 96.937 32.194 97.4747 31.5059C98.0125 30.8132 98.7166 30.4668 99.587 30.4668C100.453 30.4668 101.139 30.763 101.645 31.3555V27.5H102.909V38H101.747L101.686 37.207C101.18 37.8268 100.476 38.1367 99.5734 38.1367C98.7166 38.1367 98.017 37.7858 97.4747 37.084C96.937 36.3822 96.6681 35.4661 96.6681 34.3359V34.2402ZM97.9327 34.3838C97.9327 35.2223 98.1059 35.8786 98.4523 36.3525C98.7986 36.8265 99.2771 37.0635 99.8878 37.0635C100.69 37.0635 101.276 36.7035 101.645 35.9834V32.5859C101.266 31.8887 100.685 31.54 99.9015 31.54C99.2817 31.54 98.7986 31.7793 98.4523 32.2578C98.1059 32.7363 97.9327 33.445 97.9327 34.3838ZM106.672 38H105.407V30.6035H106.672V38ZM105.305 28.6416C105.305 28.4365 105.366 28.2633 105.489 28.1221C105.617 27.9808 105.804 27.9102 106.05 27.9102C106.296 27.9102 106.483 27.9808 106.611 28.1221C106.738 28.2633 106.802 28.4365 106.802 28.6416C106.802 28.8467 106.738 29.0176 106.611 29.1543C106.483 29.291 106.296 29.3594 106.05 29.3594C105.804 29.3594 105.617 29.291 105.489 29.1543C105.366 29.0176 105.305 28.8467 105.305 28.6416ZM110.838 28.8125V30.6035H112.219V31.5811H110.838V36.168C110.838 36.4642 110.9 36.6875 111.023 36.8379C111.146 36.9837 111.355 37.0566 111.652 37.0566C111.797 37.0566 111.998 37.0293 112.253 36.9746V38C111.921 38.0911 111.597 38.1367 111.283 38.1367C110.717 38.1367 110.291 37.9658 110.004 37.624C109.717 37.2822 109.574 36.7969 109.574 36.168V31.5811H108.227V30.6035H109.574V28.8125H110.838ZM119.731 28.8125V30.6035H121.112V31.5811H119.731V36.168C119.731 36.4642 119.792 36.6875 119.915 36.8379C120.039 36.9837 120.248 37.0566 120.544 37.0566C120.69 37.0566 120.891 37.0293 121.146 36.9746V38C120.813 38.0911 120.49 38.1367 120.175 38.1367C119.61 38.1367 119.184 37.9658 118.897 37.624C118.61 37.2822 118.466 36.7969 118.466 36.168V31.5811H117.12V30.6035H118.466V28.8125H119.731ZM126.59 31.7383C126.399 31.7064 126.192 31.6904 125.968 31.6904C125.139 31.6904 124.576 32.0436 124.28 32.75V38H123.015V30.6035H124.246L124.266 31.458C124.681 30.7972 125.269 30.4668 126.03 30.4668C126.276 30.4668 126.463 30.4987 126.59 30.5625V31.7383ZM132.472 38C132.399 37.8542 132.34 37.5944 132.295 37.2207C131.707 37.8314 131.005 38.1367 130.189 38.1367C129.46 38.1367 128.861 37.9316 128.391 37.5215C127.926 37.1068 127.694 36.5827 127.694 35.9492C127.694 35.179 127.986 34.582 128.569 34.1582C129.157 33.7298 129.982 33.5156 131.044 33.5156H132.274V32.9346C132.274 32.4925 132.142 32.1416 131.878 31.8818C131.613 31.6175 131.224 31.4854 130.709 31.4854C130.257 31.4854 129.879 31.5993 129.574 31.8271C129.268 32.055 129.116 32.3307 129.116 32.6543H127.844C127.844 32.2852 127.974 31.9297 128.234 31.5879C128.498 31.2415 128.854 30.9681 129.3 30.7676C129.752 30.5671 130.246 30.4668 130.784 30.4668C131.636 30.4668 132.304 30.681 132.787 31.1094C133.27 31.5332 133.52 32.1188 133.539 32.8662V36.2705C133.539 36.9495 133.625 37.4896 133.798 37.8906V38H132.472ZM130.374 37.0361C130.77 37.0361 131.146 36.9336 131.502 36.7285C131.857 36.5234 132.115 36.2568 132.274 35.9287V34.4111H131.283C129.733 34.4111 128.959 34.8646 128.959 35.7715C128.959 36.168 129.091 36.4779 129.355 36.7012C129.619 36.9245 129.959 37.0361 130.374 37.0361ZM138.908 37.1045C139.359 37.1045 139.753 36.9678 140.091 36.6943C140.428 36.4209 140.615 36.0791 140.651 35.6689H141.847C141.825 36.0928 141.679 36.4961 141.41 36.8789C141.141 37.2617 140.781 37.5671 140.33 37.7949C139.883 38.0228 139.409 38.1367 138.908 38.1367C137.901 38.1367 137.099 37.8018 136.502 37.1318C135.909 36.4574 135.613 35.5368 135.613 34.3701V34.1582C135.613 33.4382 135.745 32.7979 136.009 32.2373C136.274 31.6768 136.652 31.2415 137.144 30.9316C137.641 30.6217 138.227 30.4668 138.901 30.4668C139.73 30.4668 140.419 30.7152 140.966 31.2119C141.517 31.7087 141.811 32.3535 141.847 33.1465H140.651C140.615 32.668 140.432 32.276 140.104 31.9707C139.781 31.6608 139.38 31.5059 138.901 31.5059C138.258 31.5059 137.759 31.7383 137.404 32.2031C137.053 32.6634 136.878 33.3311 136.878 34.2061V34.4453C136.878 35.2975 137.053 35.9538 137.404 36.4141C137.755 36.8743 138.256 37.1045 138.908 37.1045ZM145.405 28.8125V30.6035H146.786V31.5811H145.405V36.168C145.405 36.4642 145.467 36.6875 145.59 36.8379C145.713 36.9837 145.922 37.0566 146.219 37.0566C146.364 37.0566 146.565 37.0293 146.82 36.9746V38C146.487 38.0911 146.164 38.1367 145.849 38.1367C145.284 38.1367 144.858 37.9658 144.571 37.624C144.284 37.2822 144.14 36.7969 144.14 36.168V31.5811H142.794V30.6035H144.14V28.8125H145.405ZM153.256 38C153.183 37.8542 153.124 37.5944 153.078 37.2207C152.49 37.8314 151.788 38.1367 150.973 38.1367C150.243 38.1367 149.644 37.9316 149.175 37.5215C148.71 37.1068 148.477 36.5827 148.477 35.9492C148.477 35.179 148.769 34.582 149.352 34.1582C149.94 33.7298 150.765 33.5156 151.827 33.5156H153.057V32.9346C153.057 32.4925 152.925 32.1416 152.661 31.8818C152.397 31.6175 152.007 31.4854 151.492 31.4854C151.041 31.4854 150.663 31.5993 150.357 31.8271C150.052 32.055 149.899 32.3307 149.899 32.6543H148.628C148.628 32.2852 148.758 31.9297 149.017 31.5879C149.282 31.2415 149.637 30.9681 150.084 30.7676C150.535 30.5671 151.029 30.4668 151.567 30.4668C152.419 30.4668 153.087 30.681 153.57 31.1094C154.053 31.5332 154.304 32.1188 154.322 32.8662V36.2705C154.322 36.9495 154.409 37.4896 154.582 37.8906V38H153.256ZM151.157 37.0361C151.554 37.0361 151.93 36.9336 152.285 36.7285C152.64 36.5234 152.898 36.2568 153.057 35.9287V34.4111H152.066C150.517 34.4111 149.742 34.8646 149.742 35.7715C149.742 36.168 149.874 36.4779 150.139 36.7012C150.403 36.9245 150.742 37.0361 151.157 37.0361ZM158.44 28.8125V30.6035H159.821V31.5811H158.44V36.168C158.44 36.4642 158.502 36.6875 158.625 36.8379C158.748 36.9837 158.958 37.0566 159.254 37.0566C159.4 37.0566 159.6 37.0293 159.855 36.9746V38C159.523 38.0911 159.199 38.1367 158.885 38.1367C158.32 38.1367 157.893 37.9658 157.606 37.624C157.319 37.2822 157.176 36.7969 157.176 36.168V31.5811H155.829V30.6035H157.176V28.8125H158.44ZM161.253 34.2334C161.253 33.5088 161.394 32.8571 161.677 32.2783C161.964 31.6995 162.36 31.2529 162.866 30.9385C163.377 30.624 163.958 30.4668 164.609 30.4668C165.617 30.4668 166.43 30.8154 167.05 31.5127C167.674 32.21 167.986 33.1374 167.986 34.2949V34.3838C167.986 35.1038 167.847 35.751 167.569 36.3252C167.296 36.8949 166.902 37.3392 166.387 37.6582C165.876 37.9772 165.288 38.1367 164.623 38.1367C163.62 38.1367 162.807 37.7881 162.183 37.0908C161.563 36.3936 161.253 35.4707 161.253 34.3223V34.2334ZM162.524 34.3838C162.524 35.2041 162.714 35.8626 163.092 36.3594C163.475 36.8561 163.985 37.1045 164.623 37.1045C165.266 37.1045 165.776 36.8538 166.154 36.3525C166.533 35.8467 166.722 35.1403 166.722 34.2334C166.722 33.4222 166.528 32.766 166.141 32.2646C165.758 31.7588 165.247 31.5059 164.609 31.5059C163.985 31.5059 163.481 31.7542 163.099 32.251C162.716 32.7477 162.524 33.4587 162.524 34.3838ZM174.299 36.0381C174.299 35.6963 174.169 35.432 173.909 35.2451C173.654 35.0537 173.205 34.8896 172.563 34.7529C171.925 34.6162 171.416 34.4521 171.038 34.2607C170.664 34.0693 170.386 33.8415 170.204 33.5771C170.026 33.3128 169.938 32.9984 169.938 32.6338C169.938 32.0277 170.193 31.515 170.703 31.0957C171.218 30.6764 171.874 30.4668 172.672 30.4668C173.51 30.4668 174.19 30.6833 174.709 31.1162C175.233 31.5492 175.495 32.1029 175.495 32.7773H174.224C174.224 32.431 174.076 32.1325 173.779 31.8818C173.488 31.6312 173.119 31.5059 172.672 31.5059C172.212 31.5059 171.852 31.6061 171.592 31.8066C171.332 32.0072 171.202 32.2692 171.202 32.5928C171.202 32.8981 171.323 33.1283 171.565 33.2832C171.806 33.4382 172.241 33.5863 172.87 33.7275C173.504 33.8688 174.016 34.0374 174.408 34.2334C174.8 34.4294 175.09 34.6663 175.276 34.9443C175.468 35.2178 175.564 35.5527 175.564 35.9492C175.564 36.61 175.299 37.141 174.771 37.542C174.242 37.9385 173.556 38.1367 172.713 38.1367C172.121 38.1367 171.596 38.0319 171.141 37.8223C170.685 37.6126 170.327 37.321 170.067 36.9473C169.812 36.569 169.685 36.1611 169.685 35.7236H170.949C170.972 36.1475 171.141 36.4847 171.455 36.7354C171.774 36.9814 172.193 37.1045 172.713 37.1045C173.191 37.1045 173.574 37.0088 173.861 36.8174C174.153 36.6214 174.299 36.3617 174.299 36.0381ZM177.59 39.9824L176.872 39.4902C177.301 38.8932 177.524 38.278 177.542 37.6445V36.5029H178.779V37.4941C178.779 37.9544 178.666 38.4147 178.438 38.875C178.214 39.3353 177.932 39.7044 177.59 39.9824ZM187.132 36.2842L188.964 30.6035H190.256L187.604 38H186.64L183.96 30.6035H185.252L187.132 36.2842ZM194.867 38.1367C193.864 38.1367 193.048 37.8086 192.419 37.1523C191.79 36.4915 191.476 35.6097 191.476 34.5068V34.2744C191.476 33.5407 191.615 32.8867 191.893 32.3125C192.176 31.7337 192.567 31.2826 193.069 30.959C193.575 30.6309 194.121 30.4668 194.709 30.4668C195.671 30.4668 196.418 30.7835 196.952 31.417C197.485 32.0505 197.751 32.9574 197.751 34.1377V34.6641H192.741C192.759 35.3932 192.971 35.9834 193.376 36.4346C193.787 36.8812 194.306 37.1045 194.935 37.1045C195.382 37.1045 195.76 37.0133 196.07 36.8311C196.38 36.6488 196.651 36.4072 196.883 36.1064L197.656 36.708C197.036 37.6605 196.106 38.1367 194.867 38.1367ZM194.709 31.5059C194.199 31.5059 193.771 31.6927 193.424 32.0664C193.078 32.4355 192.864 32.9551 192.782 33.625H196.487V33.5293C196.45 32.8867 196.277 32.39 195.967 32.0391C195.657 31.6836 195.238 31.5059 194.709 31.5059ZM203.216 31.7383C203.025 31.7064 202.818 31.6904 202.594 31.6904C201.765 31.6904 201.202 32.0436 200.906 32.75V38H199.641V30.6035H200.872L200.892 31.458C201.307 30.7972 201.895 30.4668 202.656 30.4668C202.902 30.4668 203.089 30.4987 203.216 30.5625V31.7383ZM204.334 34.2334C204.334 33.5088 204.475 32.8571 204.757 32.2783C205.044 31.6995 205.441 31.2529 205.947 30.9385C206.457 30.624 207.038 30.4668 207.69 30.4668C208.697 30.4668 209.511 30.8154 210.13 31.5127C210.755 32.21 211.067 33.1374 211.067 34.2949V34.3838C211.067 35.1038 210.928 35.751 210.65 36.3252C210.377 36.8949 209.982 37.3392 209.467 37.6582C208.957 37.9772 208.369 38.1367 207.704 38.1367C206.701 38.1367 205.888 37.7881 205.263 37.0908C204.643 36.3936 204.334 35.4707 204.334 34.3223V34.2334ZM205.605 34.3838C205.605 35.2041 205.794 35.8626 206.172 36.3594C206.555 36.8561 207.066 37.1045 207.704 37.1045C208.346 37.1045 208.857 36.8538 209.235 36.3525C209.613 35.8467 209.802 35.1403 209.802 34.2334C209.802 33.4222 209.609 32.766 209.221 32.2646C208.838 31.7588 208.328 31.5059 207.69 31.5059C207.066 31.5059 206.562 31.7542 206.179 32.251C205.796 32.7477 205.605 33.4587 205.605 34.3838ZM218.681 28.8125V30.6035H220.062V31.5811H218.681V36.168C218.681 36.4642 218.743 36.6875 218.866 36.8379C218.989 36.9837 219.199 37.0566 219.495 37.0566C219.641 37.0566 219.841 37.0293 220.096 36.9746V38C219.764 38.0911 219.44 38.1367 219.126 38.1367C218.561 38.1367 218.134 37.9658 217.847 37.624C217.56 37.2822 217.417 36.7969 217.417 36.168V31.5811H216.07V30.6035H217.417V28.8125H218.681ZM225.541 31.7383C225.349 31.7064 225.142 31.6904 224.919 31.6904C224.089 31.6904 223.526 32.0436 223.23 32.75V38H221.966V30.6035H223.196L223.217 31.458C223.631 30.7972 224.219 30.4668 224.98 30.4668C225.226 30.4668 225.413 30.4987 225.541 30.5625V31.7383ZM231.423 38C231.35 37.8542 231.291 37.5944 231.245 37.2207C230.657 37.8314 229.955 38.1367 229.14 38.1367C228.41 38.1367 227.811 37.9316 227.342 37.5215C226.877 37.1068 226.644 36.5827 226.644 35.9492C226.644 35.179 226.936 34.582 227.519 34.1582C228.107 33.7298 228.932 33.5156 229.994 33.5156H231.224V32.9346C231.224 32.4925 231.092 32.1416 230.828 31.8818C230.564 31.6175 230.174 31.4854 229.659 31.4854C229.208 31.4854 228.83 31.5993 228.524 31.8271C228.219 32.055 228.066 32.3307 228.066 32.6543H226.795C226.795 32.2852 226.925 31.9297 227.184 31.5879C227.449 31.2415 227.804 30.9681 228.251 30.7676C228.702 30.5671 229.196 30.4668 229.734 30.4668C230.586 30.4668 231.254 30.681 231.737 31.1094C232.22 31.5332 232.471 32.1188 232.489 32.8662V36.2705C232.489 36.9495 232.576 37.4896 232.749 37.8906V38H231.423ZM229.324 37.0361C229.721 37.0361 230.097 36.9336 230.452 36.7285C230.807 36.5234 231.065 36.2568 231.224 35.9287V34.4111H230.233C228.684 34.4111 227.909 34.8646 227.909 35.7715C227.909 36.168 228.041 36.4779 228.306 36.7012C228.57 36.9245 228.909 37.0361 229.324 37.0361ZM237.858 37.1045C238.31 37.1045 238.704 36.9678 239.041 36.6943C239.378 36.4209 239.565 36.0791 239.602 35.6689H240.798C240.775 36.0928 240.629 36.4961 240.36 36.8789C240.091 37.2617 239.731 37.5671 239.28 37.7949C238.834 38.0228 238.36 38.1367 237.858 38.1367C236.851 38.1367 236.049 37.8018 235.452 37.1318C234.86 36.4574 234.563 35.5368 234.563 34.3701V34.1582C234.563 33.4382 234.696 32.7979 234.96 32.2373C235.224 31.6768 235.603 31.2415 236.095 30.9316C236.591 30.6217 237.177 30.4668 237.852 30.4668C238.681 30.4668 239.369 30.7152 239.916 31.2119C240.467 31.7087 240.761 32.3535 240.798 33.1465H239.602C239.565 32.668 239.383 32.276 239.055 31.9707C238.731 31.6608 238.33 31.5059 237.852 31.5059C237.209 31.5059 236.71 31.7383 236.354 32.2031C236.004 32.6634 235.828 33.3311 235.828 34.2061V34.4453C235.828 35.2975 236.004 35.9538 236.354 36.4141C236.705 36.8743 237.207 37.1045 237.858 37.1045ZM244.356 28.8125V30.6035H245.736V31.5811H244.356V36.168C244.356 36.4642 244.417 36.6875 244.54 36.8379C244.663 36.9837 244.873 37.0566 245.169 37.0566C245.315 37.0566 245.515 37.0293 245.771 36.9746V38C245.438 38.0911 245.114 38.1367 244.8 38.1367C244.235 38.1367 243.809 37.9658 243.522 37.624C243.234 37.2822 243.091 36.7969 243.091 36.168V31.5811H241.744V30.6035H243.091V28.8125H244.356ZM252.206 38C252.133 37.8542 252.074 37.5944 252.028 37.2207C251.441 37.8314 250.739 38.1367 249.923 38.1367C249.194 38.1367 248.595 37.9316 248.125 37.5215C247.66 37.1068 247.428 36.5827 247.428 35.9492C247.428 35.179 247.72 34.582 248.303 34.1582C248.891 33.7298 249.716 33.5156 250.777 33.5156H252.008V32.9346C252.008 32.4925 251.876 32.1416 251.611 31.8818C251.347 31.6175 250.957 31.4854 250.443 31.4854C249.991 31.4854 249.613 31.5993 249.308 31.8271C249.002 32.055 248.85 32.3307 248.85 32.6543H247.578C247.578 32.2852 247.708 31.9297 247.968 31.5879C248.232 31.2415 248.588 30.9681 249.034 30.7676C249.485 30.5671 249.98 30.4668 250.518 30.4668C251.37 30.4668 252.038 30.681 252.521 31.1094C253.004 31.5332 253.254 32.1188 253.273 32.8662V36.2705C253.273 36.9495 253.359 37.4896 253.532 37.8906V38H252.206ZM250.108 37.0361C250.504 37.0361 250.88 36.9336 251.235 36.7285C251.591 36.5234 251.848 36.2568 252.008 35.9287V34.4111H251.017C249.467 34.4111 248.693 34.8646 248.693 35.7715C248.693 36.168 248.825 36.4779 249.089 36.7012C249.353 36.9245 249.693 37.0361 250.108 37.0361ZM257.391 28.8125V30.6035H258.772V31.5811H257.391V36.168C257.391 36.4642 257.452 36.6875 257.575 36.8379C257.698 36.9837 257.908 37.0566 258.204 37.0566C258.35 37.0566 258.551 37.0293 258.806 36.9746V38C258.473 38.0911 258.15 38.1367 257.835 38.1367C257.27 38.1367 256.844 37.9658 256.557 37.624C256.27 37.2822 256.126 36.7969 256.126 36.168V31.5811H254.779V30.6035H256.126V28.8125H257.391ZM260.203 34.2334C260.203 33.5088 260.345 32.8571 260.627 32.2783C260.914 31.6995 261.311 31.2529 261.817 30.9385C262.327 30.624 262.908 30.4668 263.56 30.4668C264.567 30.4668 265.38 30.8154 266 31.5127C266.625 32.21 266.937 33.1374 266.937 34.2949V34.3838C266.937 35.1038 266.798 35.751 266.52 36.3252C266.246 36.8949 265.852 37.3392 265.337 37.6582C264.827 37.9772 264.239 38.1367 263.574 38.1367C262.571 38.1367 261.757 37.7881 261.133 37.0908C260.513 36.3936 260.203 35.4707 260.203 34.3223V34.2334ZM261.475 34.3838C261.475 35.2041 261.664 35.8626 262.042 36.3594C262.425 36.8561 262.935 37.1045 263.574 37.1045C264.216 37.1045 264.727 36.8538 265.105 36.3525C265.483 35.8467 265.672 35.1403 265.672 34.2334C265.672 33.4222 265.478 32.766 265.091 32.2646C264.708 31.7588 264.198 31.5059 263.56 31.5059C262.935 31.5059 262.432 31.7542 262.049 32.251C261.666 32.7477 261.475 33.4587 261.475 34.3838ZM273.249 36.0381C273.249 35.6963 273.12 35.432 272.86 35.2451C272.605 35.0537 272.156 34.8896 271.513 34.7529C270.875 34.6162 270.367 34.4521 269.989 34.2607C269.615 34.0693 269.337 33.8415 269.155 33.5771C268.977 33.3128 268.888 32.9984 268.888 32.6338C268.888 32.0277 269.143 31.515 269.654 31.0957C270.169 30.6764 270.825 30.4668 271.622 30.4668C272.461 30.4668 273.14 30.6833 273.66 31.1162C274.184 31.5492 274.446 32.1029 274.446 32.7773H273.174C273.174 32.431 273.026 32.1325 272.73 31.8818C272.438 31.6312 272.069 31.5059 271.622 31.5059C271.162 31.5059 270.802 31.6061 270.542 31.8066C270.283 32.0072 270.153 32.2692 270.153 32.5928C270.153 32.8981 270.273 33.1283 270.515 33.2832C270.757 33.4382 271.192 33.5863 271.821 33.7275C272.454 33.8688 272.967 34.0374 273.359 34.2334C273.751 34.4294 274.04 34.6663 274.227 34.9443C274.418 35.2178 274.514 35.5527 274.514 35.9492C274.514 36.61 274.25 37.141 273.721 37.542C273.192 37.9385 272.507 38.1367 271.663 38.1367C271.071 38.1367 270.547 38.0319 270.091 37.8223C269.635 37.6126 269.278 37.321 269.018 36.9473C268.763 36.569 268.635 36.1611 268.635 35.7236H269.9C269.923 36.1475 270.091 36.4847 270.406 36.7354C270.725 36.9814 271.144 37.1045 271.663 37.1045C272.142 37.1045 272.525 37.0088 272.812 36.8174C273.104 36.6214 273.249 36.3617 273.249 36.0381ZM281.848 38H280.584V30.6035H281.848V38ZM280.481 28.6416C280.481 28.4365 280.543 28.2633 280.666 28.1221C280.793 27.9808 280.98 27.9102 281.226 27.9102C281.472 27.9102 281.659 27.9808 281.787 28.1221C281.914 28.2633 281.978 28.4365 281.978 28.6416C281.978 28.8467 281.914 29.0176 281.787 29.1543C281.659 29.291 281.472 29.3594 281.226 29.3594C280.98 29.3594 280.793 29.291 280.666 29.1543C280.543 29.0176 280.481 28.8467 280.481 28.6416ZM288.865 37.2686C288.373 37.8473 287.65 38.1367 286.698 38.1367C285.909 38.1367 285.308 37.9089 284.893 37.4531C284.483 36.9928 284.276 36.3138 284.271 35.416V30.6035H285.536V35.3818C285.536 36.5029 285.991 37.0635 286.903 37.0635C287.869 37.0635 288.512 36.7035 288.831 35.9834V30.6035H290.095V38H288.892L288.865 37.2686ZM296.75 36.0381C296.75 35.6963 296.62 35.432 296.36 35.2451C296.105 35.0537 295.656 34.8896 295.013 34.7529C294.375 34.6162 293.867 34.4521 293.489 34.2607C293.115 34.0693 292.837 33.8415 292.655 33.5771C292.477 33.3128 292.388 32.9984 292.388 32.6338C292.388 32.0277 292.644 31.515 293.154 31.0957C293.669 30.6764 294.325 30.4668 295.123 30.4668C295.961 30.4668 296.64 30.6833 297.16 31.1162C297.684 31.5492 297.946 32.1029 297.946 32.7773H296.674C296.674 32.431 296.526 32.1325 296.23 31.8818C295.938 31.6312 295.569 31.5059 295.123 31.5059C294.662 31.5059 294.302 31.6061 294.043 31.8066C293.783 32.0072 293.653 32.2692 293.653 32.5928C293.653 32.8981 293.774 33.1283 294.015 33.2832C294.257 33.4382 294.692 33.5863 295.321 33.7275C295.954 33.8688 296.467 34.0374 296.859 34.2334C297.251 34.4294 297.54 34.6663 297.727 34.9443C297.919 35.2178 298.014 35.5527 298.014 35.9492C298.014 36.61 297.75 37.141 297.221 37.542C296.693 37.9385 296.007 38.1367 295.164 38.1367C294.571 38.1367 294.047 38.0319 293.591 37.8223C293.136 37.6126 292.778 37.321 292.518 36.9473C292.263 36.569 292.135 36.1611 292.135 35.7236H293.4C293.423 36.1475 293.591 36.4847 293.906 36.7354C294.225 36.9814 294.644 37.1045 295.164 37.1045C295.642 37.1045 296.025 37.0088 296.312 36.8174C296.604 36.6214 296.75 36.3617 296.75 36.0381ZM308.541 38C308.468 37.8542 308.409 37.5944 308.363 37.2207C307.775 37.8314 307.073 38.1367 306.258 38.1367C305.528 38.1367 304.929 37.9316 304.46 37.5215C303.995 37.1068 303.763 36.5827 303.763 35.9492C303.763 35.179 304.054 34.582 304.638 34.1582C305.225 33.7298 306.05 33.5156 307.112 33.5156H308.343V32.9346C308.343 32.4925 308.21 32.1416 307.946 31.8818C307.682 31.6175 307.292 31.4854 306.777 31.4854C306.326 31.4854 305.948 31.5993 305.642 31.8271C305.337 32.055 305.184 32.3307 305.184 32.6543H303.913C303.913 32.2852 304.043 31.9297 304.303 31.5879C304.567 31.2415 304.922 30.9681 305.369 30.7676C305.82 30.5671 306.315 30.4668 306.852 30.4668C307.705 30.4668 308.372 30.681 308.855 31.1094C309.338 31.5332 309.589 32.1188 309.607 32.8662V36.2705C309.607 36.9495 309.694 37.4896 309.867 37.8906V38H308.541ZM306.442 37.0361C306.839 37.0361 307.215 36.9336 307.57 36.7285C307.926 36.5234 308.183 36.2568 308.343 35.9287V34.4111H307.351C305.802 34.4111 305.027 34.8646 305.027 35.7715C305.027 36.168 305.159 36.4779 305.424 36.7012C305.688 36.9245 306.028 37.0361 306.442 37.0361ZM313.206 30.6035L313.247 31.5332C313.812 30.8223 314.55 30.4668 315.462 30.4668C317.025 30.4668 317.813 31.3486 317.827 33.1123V38H316.562V33.1055C316.558 32.5723 316.435 32.1781 316.193 31.9229C315.956 31.6676 315.585 31.54 315.079 31.54C314.669 31.54 314.309 31.6494 313.999 31.8682C313.689 32.0869 313.448 32.374 313.274 32.7295V38H312.01V30.6035H313.206ZM320.113 39.9824L319.396 39.4902C319.824 38.8932 320.047 38.278 320.065 37.6445V36.5029H321.303V37.4941C321.303 37.9544 321.189 38.4147 320.961 38.875C320.738 39.3353 320.455 39.7044 320.113 39.9824ZM328.589 38H327.324V30.6035H328.589V38ZM327.222 28.6416C327.222 28.4365 327.283 28.2633 327.406 28.1221C327.534 27.9808 327.721 27.9102 327.967 27.9102C328.213 27.9102 328.4 27.9808 328.527 28.1221C328.655 28.2633 328.719 28.4365 328.719 28.6416C328.719 28.8467 328.655 29.0176 328.527 29.1543C328.4 29.291 328.213 29.3594 327.967 29.3594C327.721 29.3594 327.534 29.291 327.406 29.1543C327.283 29.0176 327.222 28.8467 327.222 28.6416ZM332.236 30.6035L332.277 31.5332C332.842 30.8223 333.58 30.4668 334.491 30.4668C336.055 30.4668 336.843 31.3486 336.857 33.1123V38H335.592V33.1055C335.587 32.5723 335.464 32.1781 335.223 31.9229C334.986 31.6676 334.615 31.54 334.109 31.54C333.698 31.54 333.338 31.6494 333.029 31.8682C332.719 32.0869 332.477 32.374 332.304 32.7295V38H331.039V30.6035H332.236ZM344.266 30.6035L344.3 31.4238C344.843 30.7858 345.574 30.4668 346.495 30.4668C347.529 30.4668 348.233 30.8633 348.607 31.6562C348.853 31.3008 349.172 31.0137 349.564 30.7949C349.96 30.5762 350.427 30.4668 350.965 30.4668C352.588 30.4668 353.413 31.3258 353.44 33.0439V38H352.175V33.1191C352.175 32.5905 352.054 32.1963 351.813 31.9365C351.571 31.6722 351.166 31.54 350.596 31.54C350.127 31.54 349.737 31.6813 349.427 31.9639C349.117 32.2419 348.937 32.6178 348.887 33.0918V38H347.616V33.1533C347.616 32.0778 347.089 31.54 346.037 31.54C345.207 31.54 344.64 31.8932 344.334 32.5996V38H343.07V30.6035H344.266ZM358.843 38.1367C357.841 38.1367 357.025 37.8086 356.396 37.1523C355.767 36.4915 355.453 35.6097 355.453 34.5068V34.2744C355.453 33.5407 355.592 32.8867 355.87 32.3125C356.152 31.7337 356.544 31.2826 357.045 30.959C357.551 30.6309 358.098 30.4668 358.686 30.4668C359.648 30.4668 360.395 30.7835 360.928 31.417C361.461 32.0505 361.728 32.9574 361.728 34.1377V34.6641H356.717C356.736 35.3932 356.947 35.9834 357.353 36.4346C357.763 36.8812 358.283 37.1045 358.912 37.1045C359.358 37.1045 359.736 37.0133 360.046 36.8311C360.356 36.6488 360.627 36.4072 360.86 36.1064L361.632 36.708C361.013 37.6605 360.083 38.1367 358.843 38.1367ZM358.686 31.5059C358.176 31.5059 357.747 31.6927 357.401 32.0664C357.055 32.4355 356.84 32.9551 356.758 33.625H360.463V33.5293C360.427 32.8867 360.254 32.39 359.944 32.0391C359.634 31.6836 359.215 31.5059 358.686 31.5059ZM364.992 38H363.727V27.5H364.992V38ZM0.649414 60.2402C0.649414 59.1055 0.918294 58.194 1.45605 57.5059C1.99382 56.8132 2.69792 56.4668 3.56836 56.4668C4.43424 56.4668 5.12012 56.763 5.62598 57.3555V53.5H6.89062V64H5.72852L5.66699 63.207C5.16113 63.8268 4.45703 64.1367 3.55469 64.1367C2.69792 64.1367 1.99837 63.7858 1.45605 63.084C0.918294 62.3822 0.649414 61.4661 0.649414 60.3359V60.2402ZM1.91406 60.3838C1.91406 61.2223 2.08724 61.8786 2.43359 62.3525C2.77995 62.8265 3.25846 63.0635 3.86914 63.0635C4.67122 63.0635 5.25684 62.7035 5.62598 61.9834V58.5859C5.24772 57.8887 4.66667 57.54 3.88281 57.54C3.26302 57.54 2.77995 57.7793 2.43359 58.2578C2.08724 58.7363 1.91406 59.445 1.91406 60.3838ZM10.6534 64H9.38875V56.6035H10.6534V64ZM9.28621 54.6416C9.28621 54.4365 9.34773 54.2633 9.47078 54.1221C9.59839 53.9808 9.78523 53.9102 10.0313 53.9102C10.2774 53.9102 10.4643 53.9808 10.5919 54.1221C10.7195 54.2633 10.7833 54.4365 10.7833 54.6416C10.7833 54.8467 10.7195 55.0176 10.5919 55.1543C10.4643 55.291 10.2774 55.3594 10.0313 55.3594C9.78523 55.3594 9.59839 55.291 9.47078 55.1543C9.34773 55.0176 9.28621 54.8467 9.28621 54.6416ZM16.0705 63.1045C16.5216 63.1045 16.9158 62.9678 17.2531 62.6943C17.5903 62.4209 17.7772 62.0791 17.8136 61.6689H19.0099C18.9871 62.0928 18.8413 62.4961 18.5724 62.8789C18.3035 63.2617 17.9435 63.5671 17.4923 63.7949C17.0457 64.0228 16.5718 64.1367 16.0705 64.1367C15.0633 64.1367 14.2612 63.8018 13.6642 63.1318C13.0718 62.4574 12.7755 61.5368 12.7755 60.3701V60.1582C12.7755 59.4382 12.9077 58.7979 13.172 58.2373C13.4364 57.6768 13.8146 57.2415 14.3068 56.9316C14.8035 56.6217 15.3892 56.4668 16.0636 56.4668C16.8931 56.4668 17.5812 56.7152 18.1281 57.2119C18.6795 57.7087 18.9735 58.3535 19.0099 59.1465H17.8136C17.7772 58.668 17.5949 58.276 17.2668 57.9707C16.9432 57.6608 16.5421 57.5059 16.0636 57.5059C15.4211 57.5059 14.922 57.7383 14.5666 58.2031C14.2157 58.6634 14.0402 59.3311 14.0402 60.2061V60.4453C14.0402 61.2975 14.2157 61.9538 14.5666 62.4141C14.9175 62.8743 15.4188 63.1045 16.0705 63.1045ZM23.9211 64.1367C22.9185 64.1367 22.1028 63.8086 21.4739 63.1523C20.845 62.4915 20.5305 61.6097 20.5305 60.5068V60.2744C20.5305 59.5407 20.6695 58.8867 20.9475 58.3125C21.2301 57.7337 21.622 57.2826 22.1233 56.959C22.6291 56.6309 23.176 56.4668 23.7639 56.4668C24.7255 56.4668 25.4729 56.7835 26.0061 57.417C26.5393 58.0505 26.8059 58.9574 26.8059 60.1377V60.6641H21.7952C21.8134 61.3932 22.0253 61.9834 22.4309 62.4346C22.8411 62.8812 23.3606 63.1045 23.9895 63.1045C24.4361 63.1045 24.8144 63.0133 25.1243 62.8311C25.4342 62.6488 25.7053 62.4072 25.9377 62.1064L26.7102 62.708C26.0904 63.6605 25.1607 64.1367 23.9211 64.1367ZM23.7639 57.5059C23.2535 57.5059 22.8251 57.6927 22.4788 58.0664C22.1324 58.4355 21.9182 58.9551 21.8362 59.625H25.5413V59.5293C25.5048 58.8867 25.3316 58.39 25.0217 58.0391C24.7118 57.6836 24.2926 57.5059 23.7639 57.5059ZM32.2708 57.7383C32.0794 57.7064 31.8721 57.6904 31.6488 57.6904C30.8193 57.6904 30.2565 58.0436 29.9603 58.75V64H28.6956V56.6035H29.9261L29.9466 57.458C30.3613 56.7972 30.9492 56.4668 31.7103 56.4668C31.9564 56.4668 32.1432 56.4987 32.2708 56.5625V57.7383ZM36.7924 64.1367C35.7898 64.1367 34.974 63.8086 34.3451 63.1523C33.7162 62.4915 33.4018 61.6097 33.4018 60.5068V60.2744C33.4018 59.5407 33.5408 58.8867 33.8187 58.3125C34.1013 57.7337 34.4932 57.2826 34.9945 56.959C35.5004 56.6309 36.0473 56.4668 36.6352 56.4668C37.5967 56.4668 38.3441 56.7835 38.8773 57.417C39.4105 58.0505 39.6771 58.9574 39.6771 60.1377V60.6641H34.6664C34.6846 61.3932 34.8965 61.9834 35.3021 62.4346C35.7123 62.8812 36.2318 63.1045 36.8607 63.1045C37.3074 63.1045 37.6856 63.0133 37.9955 62.8311C38.3054 62.6488 38.5766 62.4072 38.809 62.1064L39.5814 62.708C38.9617 63.6605 38.032 64.1367 36.7924 64.1367ZM36.6352 57.5059C36.1247 57.5059 35.6964 57.6927 35.35 58.0664C35.0036 58.4355 34.7895 58.9551 34.7074 59.625H38.4125V59.5293C38.376 58.8867 38.2029 58.39 37.893 58.0391C37.5831 57.6836 37.1638 57.5059 36.6352 57.5059ZM43.2827 54.8125V56.6035H44.6636V57.5811H43.2827V62.168C43.2827 62.4642 43.3442 62.6875 43.4673 62.8379C43.5903 62.9837 43.7999 63.0566 44.0962 63.0566C44.242 63.0566 44.4425 63.0293 44.6977 62.9746V64C44.3651 64.0911 44.0415 64.1367 43.727 64.1367C43.1619 64.1367 42.7358 63.9658 42.4487 63.624C42.1616 63.2822 42.018 62.7969 42.018 62.168V57.5811H40.6714V56.6035H42.018V54.8125H43.2827ZM56.7077 60.3838C56.7077 61.5094 56.4502 62.4163 55.9352 63.1045C55.4202 63.7926 54.723 64.1367 53.8434 64.1367C52.9456 64.1367 52.2392 63.8519 51.7243 63.2822V66.8438H50.4596V56.6035H51.6149L51.6764 57.4238C52.1914 56.7858 52.9069 56.4668 53.8229 56.4668C54.7116 56.4668 55.4134 56.8018 55.9284 57.4717C56.4479 58.1416 56.7077 59.0736 56.7077 60.2676V60.3838ZM55.443 60.2402C55.443 59.4062 55.2653 58.7477 54.9098 58.2646C54.5543 57.7816 54.0667 57.54 53.4469 57.54C52.6813 57.54 52.1071 57.8796 51.7243 58.5586V62.0928C52.1025 62.7673 52.6813 63.1045 53.4606 63.1045C54.0667 63.1045 54.5475 62.8652 54.903 62.3867C55.263 61.9036 55.443 61.1882 55.443 60.2402ZM61.8103 64.1367C60.8077 64.1367 59.9919 63.8086 59.363 63.1523C58.7341 62.4915 58.4196 61.6097 58.4196 60.5068V60.2744C58.4196 59.5407 58.5586 58.8867 58.8366 58.3125C59.1192 57.7337 59.5111 57.2826 60.0124 56.959C60.5183 56.6309 61.0652 56.4668 61.653 56.4668C62.6146 56.4668 63.362 56.7835 63.8952 57.417C64.4284 58.0505 64.695 58.9574 64.695 60.1377V60.6641H59.6843C59.7025 61.3932 59.9144 61.9834 60.32 62.4346C60.7302 62.8812 61.2497 63.1045 61.8786 63.1045C62.3252 63.1045 62.7035 63.0133 63.0134 62.8311C63.3233 62.6488 63.5945 62.4072 63.8269 62.1064L64.5993 62.708C63.9795 63.6605 63.0499 64.1367 61.8103 64.1367ZM61.653 57.5059C61.1426 57.5059 60.7142 57.6927 60.3679 58.0664C60.0215 58.4355 59.8073 58.9551 59.7253 59.625H63.4304V59.5293C63.3939 58.8867 63.2208 58.39 62.9109 58.0391C62.601 57.6836 62.1817 57.5059 61.653 57.5059ZM70.16 57.7383C69.9686 57.7064 69.7612 57.6904 69.5379 57.6904C68.7085 57.6904 68.1456 58.0436 67.8494 58.75V64H66.5848V56.6035H67.8152L67.8357 57.458C68.2505 56.7972 68.8383 56.4668 69.5994 56.4668C69.8455 56.4668 70.0324 56.4987 70.16 56.5625V57.7383ZM76.0555 62.0381C76.0555 61.6963 75.9257 61.432 75.6659 61.2451C75.4107 61.0537 74.9618 60.8896 74.3192 60.7529C73.6812 60.6162 73.1731 60.4521 72.7948 60.2607C72.4211 60.0693 72.1431 59.8415 71.9608 59.5771C71.7831 59.3128 71.6942 58.9984 71.6942 58.6338C71.6942 58.0277 71.9494 57.515 72.4598 57.0957C72.9748 56.6764 73.6311 56.4668 74.4286 56.4668C75.2671 56.4668 75.9462 56.6833 76.4657 57.1162C76.9898 57.5492 77.2518 58.1029 77.2518 58.7773H75.9804C75.9804 58.431 75.8322 58.1325 75.536 57.8818C75.2444 57.6312 74.8752 57.5059 74.4286 57.5059C73.9683 57.5059 73.6083 57.6061 73.3485 57.8066C73.0888 58.0072 72.9589 58.2692 72.9589 58.5928C72.9589 58.8981 73.0796 59.1283 73.3212 59.2832C73.5627 59.4382 73.9979 59.5863 74.6268 59.7275C75.2603 59.8688 75.773 60.0374 76.1649 60.2334C76.5569 60.4294 76.8462 60.6663 77.0331 60.9443C77.2245 61.2178 77.3202 61.5527 77.3202 61.9492C77.3202 62.61 77.0559 63.141 76.5272 63.542C75.9986 63.9385 75.3127 64.1367 74.4696 64.1367C73.8772 64.1367 73.3531 64.0319 72.8973 63.8223C72.4416 63.6126 72.0839 63.321 71.8241 62.9473C71.5689 62.569 71.4413 62.1611 71.4413 61.7236H72.7059C72.7287 62.1475 72.8973 62.4847 73.2118 62.7354C73.5308 62.9814 73.9501 63.1045 74.4696 63.1045C74.9481 63.1045 75.3309 63.0088 75.618 62.8174C75.9097 62.6214 76.0555 62.3617 76.0555 62.0381ZM82.457 64.1367C81.4544 64.1367 80.6386 63.8086 80.0097 63.1523C79.3808 62.4915 79.0664 61.6097 79.0664 60.5068V60.2744C79.0664 59.5407 79.2054 58.8867 79.4834 58.3125C79.7659 57.7337 80.1578 57.2826 80.6591 56.959C81.165 56.6309 81.7119 56.4668 82.2998 56.4668C83.2614 56.4668 84.0088 56.7835 84.542 57.417C85.0752 58.0505 85.3418 58.9574 85.3418 60.1377V60.6641H80.331C80.3492 61.3932 80.5612 61.9834 80.9668 62.4346C81.3769 62.8812 81.8964 63.1045 82.5254 63.1045C82.972 63.1045 83.3502 63.0133 83.6601 62.8311C83.97 62.6488 84.2412 62.4072 84.4736 62.1064L85.2461 62.708C84.6263 63.6605 83.6966 64.1367 82.457 64.1367ZM82.2998 57.5059C81.7893 57.5059 81.361 57.6927 81.0146 58.0664C80.6683 58.4355 80.4541 58.9551 80.372 59.625H84.0771V59.5293C84.0407 58.8867 83.8675 58.39 83.5576 58.0391C83.2477 57.6836 82.8284 57.5059 82.2998 57.5059ZM90.1983 63.1045C90.6495 63.1045 91.0437 62.9678 91.3809 62.6943C91.7181 62.4209 91.905 62.0791 91.9414 61.6689H93.1377C93.1149 62.0928 92.9691 62.4961 92.7002 62.8789C92.4314 63.2617 92.0713 63.5671 91.6202 63.7949C91.1735 64.0228 90.6996 64.1367 90.1983 64.1367C89.1911 64.1367 88.389 63.8018 87.792 63.1318C87.1996 62.4574 86.9034 61.5368 86.9034 60.3701V60.1582C86.9034 59.4382 87.0355 58.7979 87.2998 58.2373C87.5642 57.6768 87.9424 57.2415 88.4346 56.9316C88.9314 56.6217 89.517 56.4668 90.1914 56.4668C91.0209 56.4668 91.709 56.7152 92.2559 57.2119C92.8073 57.7087 93.1013 58.3535 93.1377 59.1465H91.9414C91.905 58.668 91.7227 58.276 91.3946 57.9707C91.071 57.6608 90.67 57.5059 90.1914 57.5059C89.5489 57.5059 89.0498 57.7383 88.6944 58.2031C88.3435 58.6634 88.168 59.3311 88.168 60.2061V60.4453C88.168 61.2975 88.3435 61.9538 88.6944 62.4141C89.0453 62.8743 89.5466 63.1045 90.1983 63.1045ZM99.546 63.2686C99.0538 63.8473 98.3315 64.1367 97.379 64.1367C96.5906 64.1367 95.9891 63.9089 95.5743 63.4531C95.1642 62.9928 94.9568 62.3138 94.9523 61.416V56.6035H96.2169V61.3818C96.2169 62.5029 96.6726 63.0635 97.5841 63.0635C98.5503 63.0635 99.1928 62.7035 99.5118 61.9834V56.6035H100.776V64H99.5734L99.546 63.2686ZM104.84 54.8125V56.6035H106.221V57.5811H104.84V62.168C104.84 62.4642 104.902 62.6875 105.025 62.8379C105.148 62.9837 105.357 63.0566 105.654 63.0566C105.799 63.0566 106 63.0293 106.255 62.9746V64C105.922 64.0911 105.599 64.1367 105.284 64.1367C104.719 64.1367 104.293 63.9658 104.006 63.624C103.719 63.2822 103.575 62.7969 103.575 62.168V57.5811H102.229V56.6035H103.575V54.8125H104.84ZM109.498 64H108.234V56.6035H109.498V64ZM108.131 54.6416C108.131 54.4365 108.193 54.2633 108.316 54.1221C108.443 53.9808 108.63 53.9102 108.876 53.9102C109.122 53.9102 109.309 53.9808 109.437 54.1221C109.564 54.2633 109.628 54.4365 109.628 54.6416C109.628 54.8467 109.564 55.0176 109.437 55.1543C109.309 55.291 109.122 55.3594 108.876 55.3594C108.63 55.3594 108.443 55.291 108.316 55.1543C108.193 55.0176 108.131 54.8467 108.131 54.6416ZM111.976 63.3369C111.976 63.1182 112.04 62.9359 112.167 62.79C112.3 62.6442 112.495 62.5713 112.755 62.5713C113.015 62.5713 113.211 62.6442 113.343 62.79C113.48 62.9359 113.548 63.1182 113.548 63.3369C113.548 63.5465 113.48 63.722 113.343 63.8633C113.211 64.0046 113.015 64.0752 112.755 64.0752C112.495 64.0752 112.3 64.0046 112.167 63.8633C112.04 63.722 111.976 63.5465 111.976 63.3369Z" fill="#8D96BD"/>
</svg>
